<svg width="512" height="512" viewBox="0 0 512 512" fill="none" xmlns="http://www.w3.org/2000/svg">
<path d="M256 83.1367C160.697 83.1367 83.1367 160.697 83.1367 256C83.1367 351.303 160.697 428.863 256 428.863C351.303 428.863 428.863 351.303 428.863 256C428.863 160.697 351.303 83.1367 256 83.1367ZM256 404.531C174.384 404.531 107.469 338.123 107.469 256C107.469 173.877 173.877 107.469 256 107.469C337.616 107.469 404.531 173.877 404.531 256C404.531 338.123 337.616 404.531 256 404.531Z" fill="black"/>
<path d="M335.588 242.313H268.166V174.891C268.166 168.301 262.59 162.725 256 162.725C249.41 162.725 243.834 168.301 243.834 174.891V242.313H176.412C169.822 242.313 164.246 247.889 164.246 254.479C164.246 261.069 169.822 266.646 176.412 266.646H243.834V334.067C243.834 340.658 249.41 346.234 256 346.234C262.59 346.234 268.166 340.658 268.166 334.067V266.646H335.588C342.178 266.646 347.754 261.069 347.754 254.479C347.754 247.889 342.178 242.313 335.588 242.313Z" fill="black"/>
</svg>
