<svg width="512" height="512" viewBox="0 0 512 512" fill="none" xmlns="http://www.w3.org/2000/svg">
<g clip-path="url(#clip0_68_5)">
<path d="M384 277.334H277.333V384C277.333 395.734 267.733 405.334 256 405.334C244.267 405.334 234.667 395.734 234.667 384V277.334H128C116.267 277.334 106.667 267.734 106.667 256C106.667 244.267 116.267 234.667 128 234.667H234.667V128C234.667 116.267 244.267 106.667 256 106.667C267.733 106.667 277.333 116.267 277.333 128V234.667H384C395.733 234.667 405.333 244.267 405.333 256C405.333 267.734 395.733 277.334 384 277.334Z" fill="#34D399"/>
</g>
<defs>
<clipPath id="clip0_68_5">
<rect width="512" height="512" fill="white"/>
</clipPath>
</defs>
</svg>
