<svg width="69" height="69" viewBox="0 0 69 69" fill="none" xmlns="http://www.w3.org/2000/svg">
<path d="M34.1 0C15.3 0 0 15.3 0 34.1C0 52.9 15.3 68.2 34.1 68.2C52.9 68.2 68.2 52.9 68.2 34.1C68.2 15.3 52.9 0 34.1 0ZM34.1 63.4C18 63.4 4.8 50.3 4.8 34.1C4.8 17.9 17.9 4.8 34.1 4.8C50.2 4.8 63.4 17.9 63.4 34.1C63.4 50.3 50.2 63.4 34.1 63.4Z" fill="#059953"/>
<path d="M49.8 31.4002H36.5V18.1002C36.5 16.8002 35.4 15.7002 34.1 15.7002C32.8 15.7002 31.7 16.8002 31.7 18.1002V31.4002H18.4C17.1 31.4002 16 32.5002 16 33.8002C16 35.1002 17.1 36.2002 18.4 36.2002H31.7V49.5002C31.7 50.8002 32.8 51.9002 34.1 51.9002C35.4 51.9002 36.5 50.8002 36.5 49.5002V36.2002H49.8C51.1 36.2002 52.2 35.1002 52.2 33.8002C52.2 32.5002 51.1 31.4002 49.8 31.4002Z" fill="#059953"/>
</svg>

