<svg width="512" height="512" viewBox="0 0 512 512" fill="none" xmlns="http://www.w3.org/2000/svg">
<path d="M384 69.3333H128C95.6373 69.3333 69.3333 95.6373 69.3333 128V384C69.3333 416.363 95.6373 442.667 128 442.667H384C416.363 442.667 442.667 416.363 442.667 384V128C442.667 95.6373 416.363 69.3333 384 69.3333ZM410.667 384C410.667 398.699 398.699 410.667 384 410.667H128C113.301 410.667 101.333 398.699 101.333 384V128C101.333 113.301 113.301 101.333 128 101.333H384C398.699 101.333 410.667 113.301 410.667 128V384ZM186.667 256V341.333C186.667 350.165 179.499 357.333 170.667 357.333C161.835 357.333 154.667 350.165 154.667 341.333V256C154.667 247.168 161.835 240 170.667 240C179.499 240 186.667 247.168 186.667 256ZM272 170.667V341.333C272 350.165 264.832 357.333 256 357.333C247.168 357.333 240 350.165 240 341.333V170.667C240 161.835 247.168 154.667 256 154.667C264.832 154.667 272 161.835 272 170.667ZM357.333 213.333V341.333C357.333 350.165 350.165 357.333 341.333 357.333C332.501 357.333 325.333 350.165 325.333 341.333V213.333C325.333 204.501 332.501 197.333 341.333 197.333C350.165 197.333 357.333 204.501 357.333 213.333Z" fill="white"/>
</svg>
