<svg width="512" height="512" viewBox="0 0 512 512" fill="none" xmlns="http://www.w3.org/2000/svg">
<path d="M170.667 42.6667H128C92.7083 42.6667 64 71.375 64 106.667V149.333C64 184.625 92.7083 213.333 128 213.333H170.667C205.958 213.333 234.667 184.625 234.667 149.333V106.667C234.667 71.375 205.958 42.6667 170.667 42.6667ZM192 149.333C192 161.105 182.438 170.667 170.667 170.667H128C116.228 170.667 106.667 161.105 106.667 149.333V106.667C106.667 94.895 116.228 85.3334 128 85.3334H170.667C182.438 85.3334 192 94.895 192 106.667V149.333ZM277.333 405.333C277.333 440.625 306.042 469.333 341.333 469.333H384C419.292 469.333 448 440.625 448 405.333V362.667C448 327.375 419.292 298.667 384 298.667H341.333C306.042 298.667 277.333 327.375 277.333 362.667V405.333ZM320 362.667C320 350.895 329.562 341.333 341.333 341.333H384C395.772 341.333 405.333 350.895 405.333 362.667V405.333C405.333 417.105 395.772 426.667 384 426.667H341.333C329.562 426.667 320 417.105 320 405.333V362.667ZM341.333 277.333H384C419.292 277.333 448 248.625 448 213.333V106.667C448 71.375 419.292 42.6667 384 42.6667H341.333C306.042 42.6667 277.333 71.375 277.333 106.667V213.333C277.333 248.625 306.042 277.333 341.333 277.333ZM320 106.667C320 94.895 329.562 85.3334 341.333 85.3334H384C395.772 85.3334 405.333 94.895 405.333 106.667V213.333C405.333 225.105 395.772 234.667 384 234.667H341.333C329.562 234.667 320 225.105 320 213.333V106.667ZM128 469.333H170.667C205.958 469.333 234.667 440.625 234.667 405.333V298.667C234.667 263.375 205.958 234.667 170.667 234.667H128C92.7083 234.667 64 263.375 64 298.667V405.333C64 440.625 92.7083 469.333 128 469.333ZM106.667 298.667C106.667 286.895 116.228 277.333 128 277.333H170.667C182.438 277.333 192 286.895 192 298.667V405.333C192 417.105 182.438 426.667 170.667 426.667H128C116.228 426.667 106.667 417.105 106.667 405.333V298.667Z" fill="white"/>
</svg>
