<svg width="512" height="512" viewBox="0 0 512 512" fill="none" xmlns="http://www.w3.org/2000/svg">
<path d="M328.08 116.576C321.84 122.832 311.712 122.832 305.456 116.576C296.848 108 285.12 102.736 272 102.736C258.88 102.736 247.152 108 238.544 116.576C232.304 122.832 222.176 122.832 215.92 116.576C209.664 110.336 209.664 100.208 215.92 93.9523C230.224 79.6323 250.16 70.7203 272 70.7363C293.84 70.7203 313.776 79.6323 328.08 93.9523C334.336 100.192 334.32 110.32 328.08 116.576ZM142.304 101.296C128.112 109.584 115.344 120 104.4 132.064L104.384 132.08C93.4563 144.176 84.3203 157.952 77.4563 173.008C70.5923 188.048 65.9843 204.352 64.0963 221.456C63.1203 230.24 69.4563 238.144 78.2403 239.12C87.0243 240.096 94.9283 233.76 95.9043 224.976C97.4243 211.312 101.088 198.32 106.576 186.288C112.048 174.288 119.36 163.248 128.112 153.552C136.88 143.872 147.104 135.552 158.448 128.928C166.08 124.464 168.656 114.672 164.192 107.04C159.728 99.4084 149.936 96.8323 142.304 101.296ZM384 280C384 271.168 391.168 264 400 264C408.832 264 416 271.168 416 280C415.984 310.16 392.128 334.544 362.272 335.776C365.84 343.12 368 351.28 368 360C368 368.832 360.832 376 352 376C343.168 376 336 368.832 336 360C335.968 346.752 325.248 336.016 312 336H213.088C204.256 336 197.088 328.832 197.088 320C197.088 311.168 204.256 304 213.088 304H248C261.248 303.968 271.968 293.248 272 280C272 271.168 279.168 264 288 264C296.832 264 304 271.168 304 280C304 288.624 301.888 296.704 298.4 304H360C373.248 303.968 383.968 293.248 384 280Z" fill="#22C55E"/>
<path d="M512 267.376C512 257.328 511.28 247.6 510.176 238.16C495.664 113.072 389.568 16.032 260.624 16H240.912C107.84 16.016 0.016 123.84 0 256.912C0.016 309.44 42.56 351.984 95.088 352H114.944C125.792 397.856 166.816 431.968 216 432H329.664L379.52 481.856C387.088 489.424 400 484.064 400 473.376V430.672C450.8 424.288 492.384 388.48 506.624 340.576C508.912 332.928 510.224 324.864 511.056 316.656L511.098 316.522C511.547 315.062 512 313.598 512 312C512 311.021 511.934 310.054 511.869 309.088C511.827 308.475 511.786 307.862 511.76 307.248C511.774 306.741 511.827 306.246 511.878 305.754C511.939 305.174 512 304.597 512 304V267.376ZM475.968 331.44C464.16 371.056 427.472 400.032 384 400H216C178.448 400.032 147.648 371.216 144.336 334.56L144.24 333.536C144.896 312.416 153.472 293.408 167.424 279.44C181.968 264.928 201.856 256 224 256C232.832 256 240 248.832 240 240C240 231.168 232.832 224 224 224C204.512 224 186.192 228.992 170.24 237.744C167.024 230.64 162.672 224.16 157.248 218.736C150.992 212.48 140.864 212.48 134.624 218.736C128.368 224.992 128.368 235.12 134.624 241.36C139.168 245.92 142.256 251.76 143.424 258.304C127.52 274.832 116.688 296.208 113.28 320H95.088C77.616 319.984 61.936 312.96 50.464 301.52C39.04 290.048 32 274.384 32 256.912C32 199.168 55.36 147.04 93.184 109.184C131.04 71.36 183.168 48 240.912 48H260.624C367.664 47.968 456.56 124.8 475.84 226.224C458.592 209.36 436.256 197.76 411.36 193.696C419.408 178.944 424 162 424 144C424 135.168 416.832 128 408 128C399.168 128 392 135.168 392 144C392 163.92 383.968 181.824 370.912 194.912C357.824 207.968 339.92 216 320 216C311.168 216 304 223.168 304 232C304 240.832 311.168 248 320 248C345.76 248 369.28 238.576 387.44 223.072L387.694 223.149C389.082 223.574 390.477 224 392 224C416.352 224 438.256 233.824 454.224 249.776C469.12 264.704 478.56 284.816 479.76 307.248C479.472 315.584 478.272 323.728 475.968 331.44Z" fill="#22C55E"/>
</svg>
