<svg width="512" height="512" viewBox="0 0 512 512" fill="none" xmlns="http://www.w3.org/2000/svg">
<path d="M257.6 134.88V85.76C257.6 81.5165 259.286 77.4469 262.286 74.4463C265.287 71.4457 269.357 69.76 273.6 69.76C277.843 69.76 281.913 71.4457 284.914 74.4463C287.914 77.4469 289.6 81.5165 289.6 85.76V134.88C289.6 139.123 287.914 143.193 284.914 146.194C281.913 149.194 277.843 150.88 273.6 150.88C269.357 150.88 265.287 149.194 262.286 146.194C259.286 143.193 257.6 139.123 257.6 134.88ZM369.6 190.72C371.706 190.732 373.793 190.329 375.742 189.532C377.692 188.736 379.465 187.563 380.96 186.08L416 151.36C418.98 148.362 420.653 144.307 420.653 140.08C420.653 135.853 418.98 131.798 416 128.8C413.002 125.82 408.947 124.147 404.72 124.147C400.493 124.147 396.438 125.82 393.44 128.8L358.72 163.52C356.527 165.756 355.039 168.587 354.44 171.661C353.841 174.735 354.157 177.918 355.35 180.814C356.542 183.71 358.559 186.192 361.149 187.953C363.739 189.714 366.788 190.676 369.92 190.72H369.6ZM165.92 356.16L131.2 390.88C129.7 392.367 128.51 394.137 127.698 396.087C126.885 398.037 126.467 400.128 126.467 402.24C126.467 404.352 126.885 406.443 127.698 408.393C128.51 410.343 129.7 412.113 131.2 413.6C132.687 415.1 134.457 416.29 136.407 417.102C138.357 417.915 140.448 418.333 142.56 418.333C144.672 418.333 146.763 417.915 148.713 417.102C150.663 416.29 152.433 415.1 153.92 413.6L188.64 378.88C190.132 377.388 191.315 375.617 192.123 373.668C192.93 371.719 193.345 369.63 193.345 367.52C193.345 365.41 192.93 363.321 192.123 361.372C191.315 359.423 190.132 357.652 188.64 356.16C187.148 354.668 185.377 353.485 183.428 352.677C181.479 351.87 179.39 351.455 177.28 351.455C175.17 351.455 173.081 351.87 171.132 352.677C169.183 353.485 167.412 354.668 165.92 356.16ZM153.28 272C153.28 267.757 151.594 263.687 148.594 260.686C145.593 257.686 141.523 256 137.28 256H88.32C84.0765 256 80.0069 257.686 77.0063 260.686C74.0057 263.687 72.32 267.757 72.32 272C72.32 276.243 74.0057 280.313 77.0063 283.314C80.0069 286.314 84.0765 288 88.32 288H137.28C141.523 288 145.593 286.314 148.594 283.314C151.594 280.313 153.28 276.243 153.28 272ZM153.28 129.6C150.237 127.767 146.67 126.999 143.141 127.417C139.613 127.836 136.325 129.416 133.794 131.91C131.264 134.404 129.635 137.669 129.166 141.191C128.696 144.712 129.412 148.29 131.2 151.36L165.92 186.08C167.415 187.563 169.188 188.736 171.137 189.532C173.087 190.329 175.174 190.732 177.28 190.72C179.386 190.732 181.473 190.329 183.423 189.532C185.372 188.736 187.145 187.563 188.64 186.08C191.62 183.082 193.293 179.027 193.293 174.8C193.293 170.573 191.62 166.518 188.64 163.52L153.28 129.6ZM434.4 438.4C431.402 441.38 427.347 443.053 423.12 443.053C418.893 443.053 414.838 441.38 411.84 438.4L353.76 380.32L312.48 433.92C310.989 435.856 309.075 437.425 306.884 438.507C304.693 439.589 302.283 440.154 299.84 440.16H297.12C294.245 439.657 291.563 438.377 289.363 436.46C287.164 434.542 285.53 432.059 284.64 429.28L228.48 251.2C227.569 248.394 227.451 245.39 228.14 242.521C228.829 239.653 230.297 237.03 232.384 234.944C234.47 232.857 237.093 231.389 239.961 230.7C242.83 230.011 245.834 230.129 248.64 231.04L425.76 288C428.564 288.871 431.075 290.497 433.017 292.7C434.959 294.903 436.257 297.598 436.769 300.489C437.281 303.381 436.988 306.357 435.921 309.093C434.854 311.829 433.055 314.219 430.72 316L377.12 357.28L435.04 415.2C437.972 418.191 439.614 422.212 439.614 426.4C439.614 430.588 437.972 434.609 435.04 437.6L434.4 438.4ZM340.16 345.6L341.28 344.64L342.4 343.68L386.24 309.92L267.68 272L305.6 390.4L340.16 345.6Z" fill="white"/>
</svg>
