<svg width="427" height="427" viewBox="0 0 427 427" fill="none" xmlns="http://www.w3.org/2000/svg">
<path d="M213.333 0C96 0 0 96 0 213.333C0 330.667 96 426.667 213.333 426.667C330.667 426.667 426.667 330.667 426.667 213.333C426.667 96 330.667 0 213.333 0ZM277.333 234.667H213.333C200.533 234.667 192 226.133 192 213.333V106.667C192 93.8667 200.533 85.3333 213.333 85.3333C226.133 85.3333 234.667 93.8667 234.667 106.667V192H277.333C290.133 192 298.667 200.533 298.667 213.333C298.667 226.133 290.133 234.667 277.333 234.667Z" fill="#34D399"/>
</svg>
