<svg width="512" height="512" viewBox="0 0 512 512" fill="none" xmlns="http://www.w3.org/2000/svg">
<path d="M256.333 43C139 43 43 139 43 256.333C43 373.667 139 469.667 256.333 469.667C373.667 469.667 469.667 373.667 469.667 256.333C469.667 139 373.667 43 256.333 43ZM320.333 277.667H256.333C243.533 277.667 235 269.133 235 256.333V149.667C235 136.867 243.533 128.333 256.333 128.333C269.133 128.333 277.667 136.867 277.667 149.667V235H320.333C333.133 235 341.667 243.533 341.667 256.333C341.667 269.133 333.133 277.667 320.333 277.667Z" fill="#22C55E"/>
</svg>
