<svg width="320" height="385" viewBox="0 0 320 385" fill="none" xmlns="http://www.w3.org/2000/svg">
<path d="M317.662 69.4C315.262 60.4 313.662 55.4 313.662 55.4C311.062 46.1 304.462 46.1 294.662 44.5L241.562 37.8C234.962 36.7 234.962 36.7 232.362 31C223.662 11.4 220.962 0 211.462 0H108.462C98.9624 0 96.3624 11.4 87.6624 31.1C85.0624 36.7 85.0624 36.7 78.4624 37.9L25.2624 44.6C15.5624 46.2 8.56243 47.1 5.96243 56.4C5.96243 56.4 4.76243 60.5 2.26243 69.4C-0.937568 81.3 -2.23757 80 8.76243 80H311.162C322.162 80.1 320.962 81.3 317.662 69.4ZM283.362 112H36.5624C19.9624 112 19.1624 114.2 20.1624 126.7L38.8624 369.3C40.4624 381.6 41.6624 384.1 56.3624 384.1H263.562C278.262 384.1 279.462 381.6 281.062 369.3L299.762 126.7C300.762 114.1 299.962 112 283.362 112Z" fill="#FF4545"/>
</svg>
