<svg width="512" height="512" viewBox="0 0 512 512" fill="none" xmlns="http://www.w3.org/2000/svg">
<path d="M456 108.571C461.333 113.905 465.905 121.143 469.714 130.286C473.524 139.429 475.429 147.81 475.429 155.429V484.571C475.429 492.19 472.762 498.667 467.429 504C462.095 509.333 455.619 512 448 512H64C56.381 512 49.9048 509.333 44.5714 504C39.2381 498.667 36.5714 492.19 36.5714 484.571V27.4286C36.5714 19.8095 39.2381 13.3333 44.5714 8C49.9048 2.66667 56.381 0 64 0H320C327.619 0 336 1.90476 345.143 5.71429C354.286 9.52381 361.524 14.0952 366.857 19.4286L456 108.571ZM329.143 38.8571V146.286H436.571C434.667 140.762 432.571 136.857 430.286 134.571L340.857 45.1429C338.571 42.8571 334.667 40.7619 329.143 38.8571ZM438.857 475.429V182.857H320C312.381 182.857 305.905 180.19 300.571 174.857C295.238 169.524 292.571 163.048 292.571 155.429V36.5714H73.1429V475.429H438.857ZM146.286 228.571C146.286 225.905 147.143 223.714 148.857 222C150.571 220.286 152.762 219.429 155.429 219.429H356.571C359.238 219.429 361.429 220.286 363.143 222C364.857 223.714 365.714 225.905 365.714 228.571V246.857C365.714 249.524 364.857 251.714 363.143 253.429C361.429 255.143 359.238 256 356.571 256H155.429C152.762 256 150.571 255.143 148.857 253.429C147.143 251.714 146.286 249.524 146.286 246.857V228.571ZM356.571 292.571C359.238 292.571 361.429 293.429 363.143 295.143C364.857 296.857 365.714 299.048 365.714 301.714V320C365.714 322.667 364.857 324.857 363.143 326.571C361.429 328.286 359.238 329.143 356.571 329.143H155.429C152.762 329.143 150.571 328.286 148.857 326.571C147.143 324.857 146.286 322.667 146.286 320V301.714C146.286 299.048 147.143 296.857 148.857 295.143C150.571 293.429 152.762 292.571 155.429 292.571H356.571ZM356.571 365.714C359.238 365.714 361.429 366.571 363.143 368.286C364.857 370 365.714 372.19 365.714 374.857V393.143C365.714 395.81 364.857 398 363.143 399.714C361.429 401.429 359.238 402.286 356.571 402.286H155.429C152.762 402.286 150.571 401.429 148.857 399.714C147.143 398 146.286 395.81 146.286 393.143V374.857C146.286 372.19 147.143 370 148.857 368.286C150.571 366.571 152.762 365.714 155.429 365.714H356.571Z" fill="white"/>
</svg>
