<svg width="512" height="512" viewBox="0 0 512 512" fill="none" xmlns="http://www.w3.org/2000/svg">
<path d="M437.686 475H31.3143C28.0483 475 24.9161 473.886 22.6068 471.904C20.2974 469.921 19 467.232 19 464.429V115.571C19 112.768 20.2974 110.079 22.6068 108.096C24.9161 106.114 28.0483 105 31.3143 105C34.5802 105 37.7124 106.114 40.0218 108.096C42.3312 110.079 43.6286 112.768 43.6286 115.571V453.857H437.686C440.952 453.857 444.084 454.971 446.393 456.953C448.703 458.936 450 461.625 450 464.429C450 467.232 448.703 469.921 446.393 471.904C444.084 473.886 440.952 475 437.686 475Z" fill="#34D399"/>
<path d="M415.022 362H126.978C124.332 362 121.794 360.75 119.923 358.524C118.051 356.299 117 353.28 117 350.133C117 346.986 118.051 343.967 119.923 341.742C121.794 339.516 124.332 338.266 126.978 338.266H415.022C417.668 338.266 420.206 339.516 422.077 341.742C423.949 343.967 425 346.986 425 350.133C425 353.28 423.949 356.299 422.077 358.524C420.206 360.75 417.668 362 415.022 362ZM126.978 252.867C124.332 252.867 121.794 251.617 119.923 249.391C118.051 247.166 117 244.147 117 241C117 237.853 118.051 234.834 119.923 232.609C121.794 230.383 124.332 229.133 126.978 229.133H340.662C343.309 229.133 345.847 230.383 347.718 232.609C349.589 234.834 350.641 237.853 350.641 241C350.641 244.147 349.589 247.166 347.718 249.391C345.847 251.617 343.309 252.867 340.662 252.867H126.978ZM250.459 143.734H126.978C124.332 143.734 121.794 142.484 119.923 140.258C118.051 138.033 117 135.014 117 131.867C117 128.72 118.051 125.701 119.923 123.476C121.794 121.25 124.332 120 126.978 120H250.459C253.105 120 255.643 121.25 257.515 123.476C259.386 125.701 260.437 128.72 260.437 131.867C260.437 135.014 259.386 138.033 257.515 140.258C255.643 142.484 253.105 143.734 250.459 143.734Z" fill="#34D399"/>
</svg>
