<svg width="512" height="512" viewBox="0 0 512 512" fill="none" xmlns="http://www.w3.org/2000/svg">
<g clip-path="url(#clip0_22_5)">
<path d="M81.6853 425.344C62.1509 405.75 51.1816 379.21 51.1816 351.541C51.1816 323.873 62.1509 297.333 81.6853 277.739L159.787 199.659C170.993 188.375 184.638 179.812 199.673 174.628C214.708 169.445 230.731 167.779 246.51 169.759C262.29 171.739 277.405 177.313 290.692 186.05C303.98 194.788 315.087 206.457 323.157 220.16L293.909 249.408C289.912 239.424 283.503 230.587 275.255 223.685C267.007 216.784 257.178 212.034 246.646 209.859C236.114 207.685 225.207 208.154 214.9 211.224C204.594 214.295 195.209 219.872 187.584 227.456L109.504 305.579C97.3139 317.772 90.4668 334.308 90.4688 351.549C90.4708 368.79 97.3218 385.325 109.515 397.515C121.708 409.705 138.244 416.552 155.485 416.55C172.726 416.548 189.261 409.697 201.451 397.504L228.928 370.091C243.315 374.765 258.345 377.155 273.472 377.173C274.859 377.173 276.224 377.024 277.611 376.981L229.248 425.365C209.655 444.887 183.125 455.848 155.467 455.848C127.809 455.848 101.278 444.865 81.6853 425.344ZM204.693 307.371C198.586 301.221 193.269 294.334 188.864 286.869L218.112 257.621C222.113 267.605 228.524 276.443 236.774 283.344C245.023 290.245 254.854 294.995 265.388 297.169C275.921 299.343 286.829 298.874 297.137 295.804C307.445 292.733 316.832 287.157 324.459 279.573L402.56 201.472C414.47 189.215 421.078 172.763 420.954 155.672C420.831 138.582 413.986 122.227 401.899 110.144C389.813 98.0601 373.456 91.219 356.366 91.0993C339.276 90.9796 322.825 97.591 310.571 109.504L283.157 136.96C268.763 132.252 253.715 129.847 238.571 129.835C237.205 129.835 235.819 130.005 234.453 130.069L282.816 81.7067C302.381 62.1415 328.917 51.1499 356.587 51.1499C384.256 51.1499 410.792 62.1415 430.357 81.7067C449.923 101.272 460.914 127.808 460.914 155.477C460.914 183.147 449.923 209.683 430.357 229.248L352.256 307.349C332.663 326.871 306.133 337.832 278.475 337.832C250.817 337.832 224.286 326.871 204.693 307.349V307.371Z" fill="black"/>
</g>
<defs>
<clipPath id="clip0_22_5">
<rect width="512" height="512" fill="white"/>
</clipPath>
</defs>
</svg>
