<svg width="342" height="427" viewBox="0 0 342 427" fill="none" xmlns="http://www.w3.org/2000/svg">
<path d="M170.667 234.667C164.172 234.591 157.809 236.506 152.436 240.156C147.063 243.805 142.937 249.013 140.613 255.079C138.289 261.144 137.879 267.776 139.438 274.081C140.997 280.387 144.45 286.063 149.333 290.347V320C149.333 325.658 151.581 331.084 155.582 335.085C159.583 339.086 165.009 341.333 170.667 341.333C176.325 341.333 181.751 339.086 185.752 335.085C189.752 331.084 192 325.658 192 320V290.347C196.883 286.063 200.336 280.387 201.896 274.081C203.455 267.776 203.045 261.144 200.721 255.079C198.397 249.013 194.271 243.805 188.897 240.156C183.524 236.506 177.162 234.591 170.667 234.667ZM277.333 149.333V106.667C277.333 78.377 266.095 51.2458 246.091 31.2419C226.088 11.2381 198.956 0 170.667 0C142.377 0 115.246 11.2381 95.242 31.2419C75.2381 51.2458 64.0001 78.377 64.0001 106.667V149.333C47.0262 149.333 30.7475 156.076 18.7452 168.079C6.74289 180.081 5.14984e-05 196.36 5.14984e-05 213.333V362.667C5.14984e-05 379.641 6.74289 395.919 18.7452 407.922C30.7475 419.924 47.0262 426.667 64.0001 426.667H277.333C294.307 426.667 310.586 419.924 322.588 407.922C334.591 395.919 341.333 379.641 341.333 362.667V213.333C341.333 196.36 334.591 180.081 322.588 168.079C310.586 156.076 294.307 149.333 277.333 149.333ZM106.667 106.667C106.667 89.6929 113.41 73.4141 125.412 61.4118C137.414 49.4095 153.693 42.6667 170.667 42.6667C187.641 42.6667 203.919 49.4095 215.922 61.4118C227.924 73.4141 234.667 89.6929 234.667 106.667V149.333H106.667V106.667ZM298.667 362.667C298.667 368.325 296.419 373.751 292.418 377.752C288.418 381.752 282.991 384 277.333 384H64.0001C58.3421 384 52.9159 381.752 48.9151 377.752C44.9143 373.751 42.6667 368.325 42.6667 362.667V213.333C42.6667 207.675 44.9143 202.249 48.9151 198.248C52.9159 194.248 58.3421 192 64.0001 192H277.333C282.991 192 288.418 194.248 292.418 198.248C296.419 202.249 298.667 207.675 298.667 213.333V362.667Z" fill="#999393"/>
</svg>
