<svg width="436" height="512" viewBox="0 0 436 512" fill="none" xmlns="http://www.w3.org/2000/svg">
<g clip-path="url(#clip0_50_14)">
<path fill-rule="evenodd" clip-rule="evenodd" d="M326.4 358.4H108.8V204.8C108.8 136.55 163.2 102.4 217.574 102.4H217.626C272 102.4 326.4 136.55 326.4 204.8V358.4ZM244.787 435.2C244.787 449.331 232.602 460.8 217.6 460.8C202.573 460.8 190.387 449.331 190.387 435.2V409.6H244.787V435.2ZM407.987 358.4C392.986 358.4 380.8 346.931 380.8 332.8V204.8C380.8 113.843 316.39 63.36 244.787 53.2224V25.6C244.787 11.4688 232.602 0 217.6 0C202.573 0 190.387 11.4688 190.387 25.6V53.2224C118.81 63.36 54.4 113.843 54.4 204.8V332.8C54.4 346.931 42.2144 358.4 27.1872 358.4C12.1856 358.4 0 369.869 0 384C0 398.131 12.1856 409.6 27.2128 409.6H136.013V435.2C136.013 477.619 172.518 512 217.6 512C262.656 512 299.213 477.619 299.213 435.2V409.6H408.013C423.014 409.6 435.2 398.131 435.2 384C435.2 369.869 423.014 358.4 407.987 358.4Z" fill="white"/>
</g>
<defs>
<clipPath id="clip0_50_14">
<rect width="435.2" height="512" fill="white"/>
</clipPath>
</defs>
</svg>
