<svg width="512" height="512" viewBox="0 0 512 512" fill="none" xmlns="http://www.w3.org/2000/svg">
<path d="M192 320C187.781 320 183.656 321.251 180.148 323.596C176.64 325.94 173.905 329.272 172.291 333.17C170.676 337.068 170.253 341.357 171.077 345.496C171.9 349.634 173.932 353.435 176.915 356.419C179.899 359.402 183.7 361.434 187.838 362.257C191.976 363.08 196.266 362.658 200.164 361.043C204.062 359.428 207.394 356.694 209.738 353.186C212.082 349.678 213.333 345.553 213.333 341.334C213.333 335.676 211.086 330.249 207.085 326.249C203.084 322.248 197.658 320 192 320ZM42.6666 298.667C37.0087 298.667 31.5825 300.915 27.5817 304.915C23.5809 308.916 21.3333 314.342 21.3333 320V362.667C21.3333 368.325 23.5809 373.751 27.5817 377.752C31.5825 381.753 37.0087 384 42.6666 384C48.3246 384 53.7508 381.753 57.7516 377.752C61.7524 373.751 64 368.325 64 362.667V320C64 314.342 61.7524 308.916 57.7516 304.915C53.7508 300.915 48.3246 298.667 42.6666 298.667ZM469.333 298.667C463.675 298.667 458.249 300.915 454.248 304.915C450.248 308.916 448 314.342 448 320V362.667C448 368.325 450.248 373.751 454.248 377.752C458.249 381.753 463.675 384 469.333 384C474.991 384 480.418 381.753 484.418 377.752C488.419 373.751 490.667 368.325 490.667 362.667V320C490.667 314.342 488.419 308.916 484.418 304.915C480.418 300.915 474.991 298.667 469.333 298.667ZM362.667 149.334H277.333V122.027C283.782 118.304 289.144 112.958 292.886 106.521C296.629 100.084 298.622 92.7796 298.667 85.3337C298.667 74.0178 294.171 63.1653 286.17 55.1638C278.168 47.1622 267.316 42.667 256 42.667C244.684 42.667 233.832 47.1622 225.83 55.1638C217.829 63.1653 213.333 74.0178 213.333 85.3337C213.378 92.7796 215.371 100.084 219.114 106.521C222.856 112.958 228.218 118.304 234.667 122.027V149.334H149.333C132.359 149.334 116.081 156.076 104.078 168.079C92.0762 180.081 85.3333 196.36 85.3333 213.334V405.334C85.3333 422.307 92.0762 438.586 104.078 450.588C116.081 462.591 132.359 469.334 149.333 469.334H362.667C379.641 469.334 395.919 462.591 407.921 450.588C419.924 438.586 426.667 422.307 426.667 405.334V213.334C426.667 196.36 419.924 180.081 407.921 168.079C395.919 156.076 379.641 149.334 362.667 149.334ZM292.693 192L282.027 234.667H229.973L219.307 192H292.693ZM384 405.334C384 410.992 381.752 416.418 377.752 420.419C373.751 424.419 368.325 426.667 362.667 426.667H149.333C143.675 426.667 138.249 424.419 134.248 420.419C130.248 416.418 128 410.992 128 405.334V213.334C128 207.676 130.248 202.249 134.248 198.249C138.249 194.248 143.675 192 149.333 192H175.36L192 261.12C193.168 265.854 195.922 270.044 199.804 272.994C203.685 275.944 208.46 277.476 213.333 277.334H298.667C303.54 277.476 308.315 275.944 312.196 272.994C316.078 270.044 318.832 265.854 320 261.12L336.64 192H362.667C368.325 192 373.751 194.248 377.752 198.249C381.752 202.249 384 207.676 384 213.334V405.334ZM320 320C315.781 320 311.656 321.251 308.148 323.596C304.64 325.94 301.905 329.272 300.291 333.17C298.676 337.068 298.253 341.357 299.077 345.496C299.9 349.634 301.932 353.435 304.915 356.419C307.899 359.402 311.7 361.434 315.838 362.257C319.976 363.08 324.266 362.658 328.164 361.043C332.062 359.428 335.394 356.694 337.738 353.186C340.082 349.678 341.333 345.553 341.333 341.334C341.333 335.676 339.086 330.249 335.085 326.249C331.084 322.248 325.658 320 320 320Z" fill="#5B5B5B"/>
</svg>
