<svg width="384" height="477" viewBox="0 0 384 477" fill="none" xmlns="http://www.w3.org/2000/svg">
<path d="M192.64 0C193.83 0.0570517 195.011 0.266242 196.16 0.623686L372.16 54.6827C375.556 55.7311 378.556 58.0333 380.697 61.2331C382.837 64.4329 383.998 68.3521 384 72.3844V256.812C384 318.392 357.312 361.592 321.68 393.033C286.064 424.456 241.632 446.945 200 474.498C197.568 476.108 194.809 476.955 192 476.955C189.191 476.955 186.432 476.108 184 474.498C143.824 447.899 99.36 425.373 63.408 393.749C27.456 362.106 0 318.558 0 256.794V72.3844C0.00403225 68.3473 1.1696 64.4244 3.31604 61.224C5.46248 58.0235 8.46989 55.7243 11.872 54.6827L187.872 0.623686C189.421 0.150172 191.022 -0.053887 192.624 0.0183424L192.64 0ZM208 42.2457V427.409C242.912 405.709 277.12 386.081 302.192 363.94C333.28 336.534 352 307.001 352 256.812V86.4724L208 42.2457Z" fill="#22C55E"/>
</svg>
