<svg width="512" height="512" viewBox="0 0 512 512" fill="none" xmlns="http://www.w3.org/2000/svg">
<path d="M255.998 192C220.652 192 191.998 220.654 191.998 256C191.998 291.346 220.652 320 255.998 320C291.344 320 319.998 291.346 319.998 256C319.998 220.654 291.344 192 255.998 192ZM223.998 256C223.998 238.327 238.325 224 255.998 224C273.671 224 287.998 238.327 287.998 256C287.998 273.673 273.671 288 255.998 288C238.325 288 223.998 273.673 223.998 256Z" fill="white"/>
<path d="M339.776 140.747C327.456 142.984 315.645 134.852 313.398 122.584L305.087 77.2788C304.261 72.7767 300.788 69.2164 296.292 68.2641C283.142 65.4788 269.659 64.0625 256 64.0625C242.333 64.0625 228.842 65.4807 215.684 68.2692C211.187 69.2225 207.713 72.7847 206.889 77.2887L198.601 122.586C198.381 123.79 198.061 124.976 197.647 126.131C193.432 137.875 180.454 143.993 168.66 139.796L125.157 124.308C120.833 122.769 116.004 123.978 112.925 127.371C94.7216 147.433 80.9255 171.107 72.5504 196.897C71.1376 201.248 72.4999 206.018 76.0007 208.977L111.262 238.786C112.2 239.579 113.073 240.448 113.87 241.383C121.977 250.889 120.809 265.139 111.262 273.211L76.0007 303.019C72.4999 305.979 71.1376 310.749 72.5504 315.099C80.9255 340.89 94.7216 364.563 112.925 384.627C116.004 388.019 120.833 389.229 125.157 387.69L168.662 372.198C169.82 371.789 171.011 371.469 172.223 371.248C184.544 369.011 196.355 377.142 198.602 389.411L206.889 434.707C207.713 439.213 211.187 442.774 215.684 443.728C228.842 446.515 242.333 447.933 256 447.933C269.659 447.933 283.142 446.518 296.292 443.731C300.788 442.781 304.261 439.219 305.087 434.717L313.398 389.414C313.619 388.205 313.939 387.021 314.353 385.866C318.568 374.122 331.546 368.003 343.341 372.198L386.842 387.69C391.168 389.229 395.997 388.019 399.075 384.627C417.28 364.563 431.075 340.89 439.45 315.099C440.864 310.749 439.501 305.979 436 303.019L400.739 273.21C399.798 272.417 398.928 271.549 398.131 270.614C390.022 261.107 391.19 246.857 400.739 238.786L436 208.977C439.501 206.018 440.864 201.248 439.45 196.897C431.075 171.107 417.28 147.433 399.075 127.371C395.997 123.978 391.168 122.769 386.842 124.308L343.338 139.797C342.179 140.209 340.989 140.527 339.776 140.747ZM127.956 159.272L157.927 169.942C186.245 180.019 217.559 165.381 227.766 136.941C228.769 134.146 229.544 131.267 230.079 128.345L235.756 97.3163C242.422 96.4839 249.179 96.0625 256 96.0625C262.816 96.0625 269.567 96.4833 276.229 97.3143L281.924 128.358C287.377 158.106 315.925 177.601 345.494 172.232C348.406 171.703 351.28 170.936 354.07 169.943L384.045 159.272C392.205 169.947 398.989 181.592 404.221 193.941L380.077 214.349C357.011 233.852 354.16 268.368 373.782 291.378C375.706 293.635 377.814 295.733 380.08 297.648L404.221 318.056C398.989 330.403 392.205 342.048 384.045 352.723L354.067 342.051C325.75 331.974 294.441 346.614 284.234 375.056C283.231 377.85 282.457 380.73 281.921 383.651L276.229 414.682C269.567 415.514 262.816 415.933 256 415.933C249.179 415.933 242.422 415.514 235.756 414.678L230.078 383.648C224.629 353.895 196.078 334.394 166.506 339.763C163.593 340.295 160.72 341.059 157.929 342.055L127.956 352.723C119.794 342.048 113.012 330.403 107.781 318.056L131.922 297.647C154.99 278.144 157.841 243.629 138.219 220.619C136.293 218.361 134.186 216.263 131.921 214.348L107.781 193.941C113.012 181.592 119.794 169.947 127.956 159.272Z" fill="white"/>
</svg>
