<svg width="512" height="512" viewBox="0 0 512 512" fill="none" xmlns="http://www.w3.org/2000/svg">
<path d="M290 300.8C285.2 294 280.8 287.2 276 280.4C275.6 280 275.2 279.2 275.2 278.8C287.6 266 297.6 251.2 304.4 234C304.8 234 304.8 234 305.2 234C314 235.6 323.2 237.2 332 239.2C332.4 239.2 332.8 239.2 333.2 239.2C336.4 230.8 338.4 222 340.4 213.2C342 204 343.2 195.2 343.2 186.4H342.8C334.4 184.8 325.6 183.2 317.2 181.6C316 181.6 315.2 181.2 314.4 180.8C314 162.8 310.4 145.2 303.6 129.2C304.4 128.4 305.6 127.6 307.2 126.4C314 121.6 320.8 116.8 327.6 112.4C320 96.0002 309.6 80.8002 297.2 68.0002C290 73.2002 282.8 78.0002 275.6 83.2002C274.8 84.0002 273.6 84.4002 272.8 84.4002C260.4 72.4002 245.2 62.4002 228.4 55.6002C228.4 55.2002 228.4 54.4002 228.4 53.6002C229.6 49.2002 230 44.4002 231.2 39.6002C232 35.2002 232.8 30.8002 233.6 26.8002C225.2 24.0002 216.8 21.6002 208 20.0002C199.2 18.4002 190.4 17.6002 181.6 17.2002C180.8 21.6002 180 26.0002 179.2 30.4002C178.4 35.2002 177.2 39.6002 176.8 44.4002C176.8 45.2002 176.4 45.6002 176.4 46.4002C158.4 46.4002 140.8 50.4002 124.8 57.2002C124 56.8002 123.6 56.0002 122.8 54.8002C118 47.6002 112.8 40.4002 108 32.8002C91.6 40.4002 76.4 50.8002 63.6 63.2002C68.4 70.0002 73.2 76.8002 77.6 83.6002C78.8 85.2002 79.6 86.4002 80 87.2002C68 99.6002 58 114.4 51.2 131.2C50.4 131.2 49.6 131.2 48.4 130.8C40 128.8 31.2 127.6 22.8 126H22.4C19.2 134.4 16.8 143.2 15.2 152C13.6 160.8 12.4 170 12.4 178.8C12.8 178.8 13.2 178.8 13.6 179.2C22.4 180.8 31.6 182.4 40.4 184C40.8 184 41.2 184 41.2 184.4C41.6 202.8 45.2 220.4 52.4 236.8C52 237.2 51.6 237.6 50.8 238C44 242.4 37.2 247.2 30.4 252C29.6 252.4 28.8 253.2 28.4 253.6C36 270 46.4 284.8 58.8 297.6L59.2 297.2C66.4 292 74 287.2 81.2 282C81.6 281.6 82.4 281.2 82.8 281.2C95.2 293.6 110.4 303.2 127.2 310C127.2 310.8 127.2 311.6 126.8 312.4C124.8 321.2 123.6 329.6 121.6 338.4V338.8C129.6 341.6 138.4 344 147.2 345.6C156 347.2 164.8 348 173.6 348.4V348C175.2 339.2 176.8 330.8 178.4 322C178.4 321.2 178.8 320.4 179.2 319.6C197.2 319.6 215.2 315.6 231.2 308.8C231.6 309.2 232 309.6 232.4 310.4C237.2 318 242.4 325.2 247.6 332.8L248 333.2C264.4 325.6 279.2 315.6 292.4 303.2C291.2 302.4 290.4 302 290 300.8ZM259.6 198.4C258.8 202.8 257.6 207.2 256 211.6C251.6 224 244 234.8 234.8 243.6C228.4 250 220.8 254.8 212.4 258.8C200.8 264 188.4 266.8 175.2 266.4C170.8 266.4 166.4 266 162 264.8C157.6 264 153.2 262.8 149.2 261.2C136.8 256.8 126 249.6 117.2 240.4C110.8 234 105.6 226.4 102 218C96.4 206.4 93.6 193.6 94 180.4C94 176 94.4 171.2 95.6 166.8C96.4 162.4 97.6 158 99.2 153.6C103.6 141.2 110.8 130.4 120 121.6C126.8 115.2 134.4 110 142.4 106.4C154 101.2 166.4 98.4002 179.6 98.8002C184 98.8002 188.4 99.2002 192.8 100.4C197.2 101.2 201.6 102.4 205.6 104C218 108.4 228.8 115.6 237.6 124.8C244 131.6 249.2 139.2 253.2 147.2C258.4 158.8 261.2 171.2 261.2 184.4C260.8 189.2 260.4 194 259.6 198.4Z" fill="#4CAF50"/>
<path d="M205.2 156.4C201.2 152.4 196.4 148.8 190.4 146.8C188.4 146 186.4 145.6 184.4 145.2C182.4 144.8 180.4 144.8 178.4 144.4C172.4 144.4 166.4 145.6 161.2 148C157.2 149.6 154 152 150.8 155.2C146.8 159.2 143.2 164 141.2 170C140.4 172 140 174 139.6 176C139.2 178 138.8 180 138.8 182.4C138.8 188.4 140 194.4 142.4 199.6C144 203.2 146.4 206.8 149.6 210C153.6 214 158.8 217.6 164.4 219.6C166.4 220.4 168.4 220.8 170.4 221.2C172.4 221.6 174.4 221.6 176.4 222C182.4 222 188.4 220.8 193.6 218.4C197.2 216.8 200.8 214.4 204 211.6C208.4 207.6 211.6 202.4 213.6 196.8C214.4 194.8 214.8 192.8 215.2 190.8C215.6 188.8 216 186.8 216 184.4C216 178.4 214.8 172.4 212.4 167.2C210.4 162.8 208 159.6 205.2 156.4ZM500 386.4C494.4 385.2 488.8 384 482.8 383.2C482 383.2 481.6 382.8 481.2 382.8C481.2 370.8 478.4 359.2 474 348.4C474.4 348 475.2 347.2 476.4 346.4C480.8 343.2 485.6 340 490 337.2C484.8 326.4 478 316.4 469.6 307.6C464.8 310.8 460 314 455.2 317.6C454.4 318 454 318.4 453.6 318.4C445.2 310.4 435.2 303.6 424 299.2C424 298.8 424 298.4 424 298C424.8 294.8 425.2 292 425.6 288.8C426 286 426.4 283.2 427.2 280C421.6 278 416 276.4 410 275.2C404 274 398.4 273.6 392.4 273.2C392 276 391.2 278.8 390.8 282C390.4 285.2 389.6 288 389.2 291.2C389.2 291.6 389.2 292 388.8 292.4C376.8 292.4 365.2 295.2 354.4 299.6C354 299.2 353.6 298.8 353.2 298C350 293.2 346.4 288.4 343.2 283.6C332.4 288.8 322.4 295.6 313.6 304C316.8 308.4 320 313.2 323.2 317.6C324 318.8 324.4 319.6 324.8 320C316.8 328.4 310 338.4 305.6 349.2C305.2 349.2 304.4 349.2 303.6 349.2C298 348 292.4 346.8 286.4 346H286C284 351.6 282.4 357.2 281.2 363.6C280 369.6 279.6 375.6 279.2 381.6C279.6 381.6 279.6 381.6 280 381.6C286 382.8 292 384 298 384.8C298.4 384.8 298.4 384.8 298.8 384.8C298.8 397.2 301.6 408.8 306.4 419.6C306 420 306 420 305.6 420.4C300.8 423.6 296.4 426.4 292 429.6C291.6 430 290.8 430.4 290.4 430.4C295.6 441.2 302.4 451.2 310.8 459.6C310.8 459.6 311.2 459.6 311.2 459.2C316 455.6 321.2 452.4 326 449.2C326.4 448.8 326.8 448.8 327.2 448.8C335.6 456.8 345.6 463.6 356.8 468C356.8 468.4 356.8 468.8 356.8 469.6C355.6 475.2 354.8 481.2 353.6 486.8V487.2C359.2 489.2 364.8 490.8 370.8 492C376.8 493.2 382.4 493.6 388.4 494V493.6C389.2 488 390.8 482 391.6 476.4C391.6 476 392 475.2 392 474.8C404 474.8 416 472 426.8 467.6C427.2 468 427.2 468 427.6 468.4C430.8 473.2 434.4 478.4 437.6 483.2C437.6 483.2 437.6 483.6 438 483.6C448.8 478.4 458.8 471.6 467.6 463.6C467.2 463.2 467.2 462.8 466.8 462C463.6 457.6 460.8 452.8 457.6 448.4C457.2 448 457.2 447.6 456.8 447.2C465.2 438.8 471.6 428.8 476.4 417.2C476.4 417.2 476.8 417.2 477.2 417.2C483.2 418.4 489.2 419.2 495.2 420.4C495.6 420.4 495.6 420.4 496 420.4C498 414.8 499.6 409.2 500.8 403.2C499.6 398.4 500 392.4 500 386.4ZM444.8 394.4C444.4 397.6 443.6 400.4 442.4 403.2C439.6 411.6 434.4 418.8 428.4 424.4C424 428.4 418.8 432 413.6 434.4C406 438 397.6 440 388.8 439.6C386 439.6 382.8 439.2 380 438.8C377.2 438.4 374 437.6 371.6 436.4C363.2 433.6 356 428.8 350.4 422.4C346.4 418 342.8 413.2 340 407.6C336.4 400 334.4 391.6 334.8 382.4C334.8 379.6 335.2 376.4 335.6 373.2C336 370 336.8 367.2 338 364.4C340.8 356 346 348.8 352 343.2C356.4 338.8 361.6 335.6 367.2 332.8C374.8 329.2 383.2 327.2 392 327.6C394.8 327.6 398 328 400.8 328.4C403.6 328.8 406.8 329.6 409.6 330.8C418 333.6 425.2 338.4 430.8 344.8C435.2 349.2 438.4 354.4 441.2 359.6C444.8 367.2 446.8 375.6 446.4 384.4C445.6 388.4 445.2 391.6 444.8 394.4Z" fill="#4CAF50"/>
<path d="M408.4 366.4C405.6 363.6 402.4 361.6 398.8 360C397.6 359.6 396.4 359.2 394.8 358.8C393.6 358.4 392 358.4 390.8 358.4C386.8 358.4 382.8 359.2 379.2 360.8C376.8 362 374.4 363.6 372.4 365.6C369.6 368.4 367.2 371.6 366 375.2C365.6 376.4 365.2 378 364.8 379.2C364.4 380.4 364.4 382 364.4 383.2C364.4 387.2 365.2 391.2 366.8 394.8C368 397.2 369.6 399.6 371.6 401.6C374.4 404.4 377.6 406.4 381.2 408C382.4 408.4 383.6 408.8 385.2 409.2C386.4 409.6 388 409.6 389.2 409.6C393.2 409.6 397.2 408.8 400.8 407.2C403.2 406 405.6 404.4 407.6 402.4C410.4 399.6 412.8 396.4 414 392.4C414.4 391.2 414.8 389.6 415.2 388.4C415.6 387.2 415.6 385.6 415.6 384.4C415.6 380.4 414.8 376.4 413.2 372.8C412 370.8 410.4 368.4 408.4 366.4Z" fill="#4CAF50"/>
</svg>
