<svg width="512" height="512" viewBox="0 0 512 512" fill="none" xmlns="http://www.w3.org/2000/svg">
<path d="M416.19 291.992C422.78 291.992 428.356 286.416 428.356 279.826V232.174C428.356 225.584 422.78 220.008 416.19 220.008H393.378C390.337 207.335 385.267 195.168 378.677 184.016L394.392 168.301C398.954 163.739 398.954 155.628 394.392 151.065L360.935 117.608C356.372 113.046 348.261 113.046 343.699 117.608L327.984 133.323C316.832 126.733 304.665 121.663 291.992 118.115V95.8099C291.992 89.2198 286.416 83.6436 279.826 83.6436H232.174C225.584 83.6436 220.008 89.2198 220.008 95.8099V118.115C207.335 121.156 195.168 126.226 183.509 132.816L167.794 117.101C163.232 112.539 155.121 112.539 150.558 117.101L117.101 150.558C112.539 155.121 112.539 163.232 117.101 167.794L132.816 183.509C126.226 194.661 121.156 206.828 117.608 220.008H95.8099C89.2198 220.008 83.6436 225.584 83.6436 232.174V279.826C83.6436 286.416 89.2198 291.992 95.8099 291.992H117.608C121.156 304.665 126.226 316.832 132.816 328.491L117.101 344.206C112.539 348.768 112.539 356.879 117.101 361.442L150.558 394.899C155.121 399.461 163.232 399.461 167.794 394.899L183.509 379.184C194.661 385.774 206.828 390.844 220.008 393.885V416.19C220.008 422.78 225.584 428.356 232.174 428.356H279.826C286.416 428.356 291.992 422.78 291.992 416.19V393.885C304.665 390.337 316.832 385.774 327.984 378.677L343.699 394.392C348.261 398.954 356.372 398.954 360.935 394.392L394.392 360.935C398.954 356.372 398.954 348.261 394.392 343.699L378.677 327.477C385.267 316.325 390.337 304.158 393.378 291.485H416.19V291.992ZM372.087 277.798C369.046 294.02 362.962 309.228 353.331 322.915C349.782 327.984 350.796 334.067 354.851 338.63L369.046 352.824L352.317 369.552L338.123 354.851C334.067 350.796 327.477 350.289 322.408 353.331C308.721 362.962 293.513 369.046 277.291 372.087C271.715 373.101 267.152 378.17 267.152 384.253V404.531H243.834V384.76C243.834 378.677 239.778 373.608 233.695 372.594C216.966 369.552 201.758 363.469 188.071 353.838C183.002 350.289 176.919 351.303 172.356 355.358L158.162 369.552L141.434 352.824L155.121 339.137C159.176 335.081 159.683 328.491 156.642 323.422C147.01 309.735 140.927 294.527 137.885 277.798C136.871 272.222 131.802 267.659 125.719 267.659H105.949V244.341H125.719C131.802 244.341 136.871 240.285 137.885 234.202C140.927 217.473 147.517 202.265 156.642 188.578C160.19 183.509 159.176 177.426 155.121 172.863L141.434 159.176L158.162 142.448L171.85 156.135C175.905 160.19 182.495 160.697 187.564 157.655C201.251 148.024 216.459 141.941 233.188 138.899C238.764 137.885 243.327 132.816 243.327 126.733V106.962H266.646V126.733C266.646 132.816 270.701 137.378 276.784 138.899C293.006 141.941 308.214 148.531 321.901 157.655C326.463 161.204 333.053 160.19 337.616 156.135L351.81 141.941L368.539 158.669L354.851 173.877C350.796 177.933 350.289 184.523 353.331 189.592C362.455 203.279 369.046 218.487 372.087 234.709C373.101 240.285 378.17 244.848 384.253 244.848H404.531V268.166H384.253C378.17 267.659 373.101 271.715 372.087 277.798Z" fill="#22C55E"/>
<path d="M255.493 174.384C209.362 174.384 171.85 211.897 171.85 258.028C171.85 304.159 209.362 341.671 255.493 341.671C301.624 341.671 339.137 304.159 339.137 258.028C339.137 211.897 301.624 174.384 255.493 174.384ZM255.493 316.832C223.05 316.832 196.182 290.471 196.182 257.521C196.182 224.57 223.05 198.717 255.493 198.717C287.937 198.717 314.804 225.077 314.804 258.028C314.804 290.978 288.444 316.832 255.493 316.832Z" fill="#22C55E"/>
</svg>
