<svg width="512" height="512" viewBox="0 0 512 512" fill="none" xmlns="http://www.w3.org/2000/svg">
<g clip-path="url(#clip0_56_82)">
<path fill-rule="evenodd" clip-rule="evenodd" d="M430.992 312.624L475.28 356.704C479.472 360.864 481.024 367.008 479.312 372.656C477.616 378.32 472.928 382.576 467.136 383.728C467.136 383.728 431.76 390.8 408.064 395.552C401.728 396.816 396.768 401.76 395.504 408.096C390.768 431.808 383.696 467.184 383.696 467.184C382.528 472.96 378.288 477.648 372.64 479.36C366.992 481.072 360.864 479.536 356.688 475.36L287.008 405.68L304.224 396.032L332.592 395.68C349.312 395.472 364.72 386.576 373.264 372.192L387.76 347.808L412.144 333.312C420.48 328.368 426.976 321.104 430.992 312.624ZM80.9279 312.48C84.9599 321.024 91.4719 328.336 99.8559 333.312L124.24 347.808L138.736 372.192C147.28 386.576 162.688 395.472 179.408 395.68L207.776 396.032L224.992 405.68L155.312 475.36C151.136 479.536 145.008 481.072 139.36 479.36C133.712 477.648 129.472 472.96 128.304 467.184C128.304 467.184 121.232 431.808 116.496 408.096C115.232 401.76 110.272 396.816 103.936 395.552C80.2399 390.8 44.8639 383.728 44.8639 383.728C39.0719 382.576 34.3999 378.32 32.6879 372.672C30.9759 367.024 32.5119 360.896 36.6879 356.736L80.9279 312.48ZM216.32 67.9524L248.176 50.0964C253.04 47.3604 258.96 47.3604 263.824 50.0964L295.68 67.9524L332.192 68.4163C337.776 68.4803 342.912 71.4405 345.76 76.2405L364.4 107.632L395.808 126.288C400.592 129.136 403.568 134.272 403.632 139.84L404.08 176.368L421.952 208.208C424.688 213.072 424.688 219.008 421.952 223.872L404.08 255.728L403.632 292.24C403.568 297.808 400.592 302.96 395.808 305.792L364.4 324.448L345.76 355.856C342.912 360.64 337.776 363.616 332.192 363.68L295.68 364.128L263.824 382C258.96 384.72 253.04 384.72 248.176 382L216.32 364.128L179.808 363.68C174.224 363.616 169.088 360.64 166.24 355.856L147.6 324.448L116.192 305.792C111.408 302.96 108.432 297.808 108.368 292.24L107.92 255.728L90.0478 223.872C87.3118 219.008 87.3118 213.072 90.0478 208.208L107.92 176.368L108.368 139.84C108.432 134.272 111.408 129.136 116.192 126.288L147.6 107.632L166.24 76.2405C169.088 71.4405 174.224 68.4803 179.808 68.4163L216.32 67.9524ZM221.76 168.336L241.856 130.256C244.624 125.008 250.064 121.712 256 121.712C261.936 121.712 267.376 125.008 270.144 130.256L290.24 168.336L332.672 175.68C338.528 176.688 343.328 180.848 345.168 186.496C346.992 192.144 345.552 198.336 341.424 202.592L311.408 233.472L317.536 276.096C318.384 281.968 315.904 287.824 311.104 291.312C306.304 294.8 299.968 295.344 294.64 292.72L256 273.728L217.36 292.72C212.032 295.344 205.696 294.8 200.896 291.312C196.096 287.824 193.616 281.968 194.464 276.096L200.592 233.472L170.576 202.592C166.448 198.336 165.008 192.144 166.832 186.496C168.672 180.848 173.472 176.688 179.328 175.68L221.76 168.336Z" fill="#A3A3A3"/>
</g>
<defs>
<clipPath id="clip0_56_82">
<rect width="512" height="512" fill="white"/>
</clipPath>
</defs>
</svg>
