<svg width="427" height="427" viewBox="0 0 427 427" fill="none" xmlns="http://www.w3.org/2000/svg">
<path d="M405.333 384H72.7467L164.693 292.053L172.8 308.267C174.243 311.126 176.312 313.624 178.853 315.575C181.394 317.526 184.342 318.879 187.477 319.535C190.613 320.191 193.856 320.132 196.965 319.363C200.075 318.594 202.971 317.135 205.44 315.093L298.667 237.44V256C298.667 261.658 300.914 267.084 304.915 271.085C308.916 275.086 314.342 277.333 320 277.333C325.658 277.333 331.084 275.086 335.085 271.085C339.086 267.084 341.333 261.658 341.333 256V192C341.282 189.67 340.85 187.364 340.053 185.173V183.467C339.251 181.853 338.247 180.348 337.067 178.987L335.36 177.28C334.065 176.114 332.632 175.111 331.093 174.293H328.96C326.29 172.415 323.225 171.174 320 170.667H256C250.342 170.667 244.916 172.914 240.915 176.915C236.914 180.916 234.667 186.342 234.667 192C234.667 197.658 236.914 203.084 240.915 207.085C244.916 211.086 250.342 213.333 256 213.333H261.12L199.04 264.96L189.653 246.4C188.151 243.387 185.956 240.773 183.25 238.77C180.543 236.768 177.401 235.435 174.08 234.88C170.734 234.329 167.305 234.583 164.078 235.622C160.85 236.661 157.916 238.454 155.52 240.853L42.6667 353.92V21.3333C42.6667 15.6754 40.4191 10.2492 36.4183 6.24839C32.4175 2.24761 26.9913 0 21.3333 0C15.6754 0 10.2492 2.24761 6.24839 6.24839C2.24761 10.2492 0 15.6754 0 21.3333V405.333C0 410.991 2.24761 416.417 6.24839 420.418C10.2492 424.419 15.6754 426.667 21.3333 426.667H405.333C410.991 426.667 416.417 424.419 420.418 420.418C424.419 416.417 426.667 410.991 426.667 405.333C426.667 399.675 424.419 394.249 420.418 390.248C416.417 386.248 410.991 384 405.333 384Z" fill="#34D399"/>
</svg>
