<svg width="538" height="512" viewBox="0 0 538 512" fill="none" xmlns="http://www.w3.org/2000/svg">
<g clip-path="url(#clip0_54_4)">
<path fill-rule="evenodd" clip-rule="evenodd" d="M483.84 435.2C483.84 449.331 471.808 460.8 456.96 460.8C442.112 460.8 430.08 449.331 430.08 435.2V76.8C430.08 62.6688 442.112 51.2 456.96 51.2C471.808 51.2 483.84 62.6688 483.84 76.8V435.2ZM483.84 0H430.08C400.384 0 376.32 22.912 376.32 51.2V460.8C376.32 489.088 400.384 512 430.08 512H483.84C513.536 512 537.6 489.088 537.6 460.8V51.2C537.6 22.912 513.536 0 483.84 0ZM295.68 435.2C295.68 449.331 283.648 460.8 268.8 460.8C253.952 460.8 241.92 449.331 241.92 435.2V179.2C241.92 165.069 253.952 153.6 268.8 153.6C283.648 153.6 295.68 165.069 295.68 179.2V435.2ZM295.68 102.4H241.92C212.224 102.4 188.16 125.312 188.16 153.6V460.8C188.16 489.088 212.224 512 241.92 512H295.68C325.376 512 349.44 489.088 349.44 460.8V153.6C349.44 125.312 325.376 102.4 295.68 102.4ZM107.52 435.2C107.52 449.331 95.488 460.8 80.64 460.8C65.792 460.8 53.76 449.331 53.76 435.2V332.8C53.76 318.669 65.792 307.2 80.64 307.2C95.488 307.2 107.52 318.669 107.52 332.8V435.2ZM107.52 256H53.76C24.064 256 0 278.912 0 307.2V460.8C0 489.088 24.064 512 53.76 512H107.52C137.216 512 161.28 489.088 161.28 460.8V307.2C161.28 278.912 137.216 256 107.52 256Z" fill="#21C15C"/>
</g>
<defs>
<clipPath id="clip0_54_4">
<rect width="537.6" height="512" fill="white"/>
</clipPath>
</defs>
</svg>
