<svg width="512" height="512" viewBox="0 0 512 512" fill="none" xmlns="http://www.w3.org/2000/svg">
<path d="M480 144V228.416C479.999 229.365 479.717 230.292 479.19 231.081C478.662 231.869 477.913 232.484 477.036 232.847C476.16 233.21 475.195 233.305 474.265 233.12C473.334 232.935 472.479 232.478 471.808 231.808L446.144 206.144L373.328 278.96C372.542 279.745 371.508 280.234 370.402 280.341C369.296 280.449 368.187 280.17 367.264 279.552L320.672 248.496L259.376 294.464C258.583 295.059 257.625 295.394 256.633 295.423C255.642 295.452 254.666 295.172 253.84 294.624L208 264.032L129.744 316.192C127.978 317.367 125.819 317.792 123.74 317.375C121.661 316.958 119.832 315.733 118.656 313.968L105.344 294C104.169 292.234 103.744 290.075 104.161 287.996C104.578 285.917 105.803 284.088 107.568 282.912L205.344 217.728C206.134 217.204 207.06 216.924 208.008 216.924C208.956 216.924 209.882 217.204 210.672 217.728L255.328 247.504L316.624 201.536C317.417 200.941 318.375 200.606 319.367 200.577C320.358 200.548 321.334 200.828 322.16 201.376L365.456 230.256L417.856 177.856L392.192 152.192C391.522 151.521 391.065 150.666 390.88 149.735C390.695 148.805 390.79 147.84 391.153 146.964C391.516 146.087 392.131 145.338 392.919 144.81C393.708 144.283 394.635 144.001 395.584 144H480ZM440 392H424C421.878 392 419.843 391.157 418.343 389.657C416.843 388.157 416 386.122 416 384V280C416 277.878 416.843 275.843 418.343 274.343C419.843 272.843 421.878 272 424 272H440C442.122 272 444.157 272.843 445.657 274.343C447.157 275.843 448 277.878 448 280V384C448 386.122 447.157 388.157 445.657 389.657C444.157 391.157 442.122 392 440 392ZM312 392H296C293.878 392 291.843 391.157 290.343 389.657C288.843 388.157 288 386.122 288 384V312C288 309.878 288.843 307.843 290.343 306.343C291.843 304.843 293.878 304 296 304H312C314.122 304 316.157 304.843 317.657 306.343C319.157 307.843 320 309.878 320 312V384C320 386.122 319.157 388.157 317.657 389.657C316.157 391.157 314.122 392 312 392ZM248 392H232C229.878 392 227.843 391.157 226.343 389.657C224.843 388.157 224 386.122 224 384V344C224 341.878 224.843 339.843 226.343 338.343C227.843 336.843 229.878 336 232 336H248C250.122 336 252.157 336.843 253.657 338.343C255.157 339.843 256 341.878 256 344V384C256 386.122 255.157 388.157 253.657 389.657C252.157 391.157 250.122 392 248 392ZM376 392H360C357.878 392 355.843 391.157 354.343 389.657C352.843 388.157 352 386.122 352 384V328C352 325.878 352.843 323.843 354.343 322.343C355.843 320.843 357.878 320 360 320H376C378.122 320 380.157 320.843 381.657 322.343C383.157 323.843 384 325.878 384 328V384C384 386.122 383.157 388.157 381.657 389.657C380.157 391.157 378.122 392 376 392Z" fill="#10B981"/>
<path d="M472.08 416C476.496 416 480 419.584 480 424V440C480 442.122 479.157 444.157 477.657 445.657C476.157 447.157 474.122 448 472 448H48C43.7565 448 39.6869 446.314 36.6863 443.314C33.6857 440.313 32 436.243 32 432V72C32 69.8783 32.8429 67.8434 34.3431 66.3431C35.8434 64.8429 37.8783 64 40 64H56C58.1217 64 60.1566 64.8429 61.6569 66.3431C63.1571 67.8434 64 69.8783 64 72V416H472.08Z" fill="#10B981"/>
<path d="M120 392H104C101.878 392 99.8434 391.157 98.3431 389.657C96.8429 388.157 96 386.122 96 384V360C96 357.878 96.8429 355.843 98.3431 354.343C99.8434 352.843 101.878 352 104 352H120C122.122 352 124.157 352.843 125.657 354.343C127.157 355.843 128 357.878 128 360V384C128 386.122 127.157 388.157 125.657 389.657C124.157 391.157 122.122 392 120 392ZM184 392H168C165.878 392 163.843 391.157 162.343 389.657C160.843 388.157 160 386.122 160 384V344C160 341.878 160.843 339.843 162.343 338.343C163.843 336.843 165.878 336 168 336H184C186.122 336 188.157 336.843 189.657 338.343C191.157 339.843 192 341.878 192 344V384C192 386.122 191.157 388.157 189.657 389.657C188.157 391.157 186.122 392 184 392Z" fill="#10B981"/>
</svg>
