<svg width="512" height="512" viewBox="0 0 512 512" fill="none" xmlns="http://www.w3.org/2000/svg">
<path d="M436.333 427H103.747L195.693 335.053L203.8 351.267C205.243 354.126 207.312 356.624 209.853 358.575C212.394 360.526 215.342 361.879 218.477 362.535C221.613 363.191 224.856 363.132 227.965 362.363C231.075 361.594 233.971 360.135 236.44 358.093L329.667 280.44V299C329.667 304.658 331.914 310.084 335.915 314.085C339.916 318.086 345.342 320.333 351 320.333C356.658 320.333 362.084 318.086 366.085 314.085C370.086 310.084 372.333 304.658 372.333 299V235C372.282 232.67 371.85 230.364 371.053 228.173V226.467C370.251 224.853 369.247 223.348 368.067 221.987L366.36 220.28C365.065 219.114 363.632 218.111 362.093 217.293H359.96C357.29 215.415 354.225 214.174 351 213.667H287C281.342 213.667 275.916 215.914 271.915 219.915C267.914 223.916 265.667 229.342 265.667 235C265.667 240.658 267.914 246.084 271.915 250.085C275.916 254.086 281.342 256.333 287 256.333H292.12L230.04 307.96L220.653 289.4C219.151 286.387 216.956 283.773 214.25 281.77C211.543 279.768 208.401 278.435 205.08 277.88C201.734 277.329 198.305 277.583 195.078 278.622C191.85 279.661 188.916 281.454 186.52 283.853L73.6667 396.92V64.3333C73.6667 58.6754 71.4191 53.2492 67.4183 49.2484C63.4175 45.2476 57.9913 43 52.3333 43C46.6754 43 41.2492 45.2476 37.2484 49.2484C33.2476 53.2492 31 58.6754 31 64.3333V448.333C31 453.991 33.2476 459.417 37.2484 463.418C41.2492 467.419 46.6754 469.667 52.3333 469.667H436.333C441.991 469.667 447.417 467.419 451.418 463.418C455.419 459.417 457.667 453.991 457.667 448.333C457.667 442.675 455.419 437.249 451.418 433.248C447.417 429.248 441.991 427 436.333 427Z" fill="#5B5B5B"/>
</svg>
