<svg width="512" height="512" viewBox="0 0 512 512" fill="none" xmlns="http://www.w3.org/2000/svg">
<g clip-path="url(#clip0_61_13)">
<path d="M490.667 234.667H456.981C452.053 188.564 431.58 145.512 398.929 112.594C366.278 79.6751 323.394 58.8507 277.333 53.5467V21.3333C277.333 15.6754 275.086 10.2492 271.085 6.24839C267.084 2.24761 261.658 0 256 0C250.342 0 244.916 2.24761 240.915 6.24839C236.914 10.2492 234.667 15.6754 234.667 21.3333V53.1413C187.919 57.7155 144.179 78.2689 110.821 111.336C77.4619 144.403 56.5256 187.961 51.5413 234.667H21.3333C15.6754 234.667 10.2492 236.914 6.24839 240.915C2.24761 244.916 0 250.342 0 256C0 261.658 2.24761 267.084 6.24839 271.085C10.2492 275.086 15.6754 277.333 21.3333 277.333H51.5413C56.5256 324.039 77.4619 367.597 110.821 400.664C144.179 433.731 187.919 454.285 234.667 458.859V490.667C234.667 496.325 236.914 501.751 240.915 505.752C244.916 509.752 250.342 512 256 512C261.658 512 267.084 509.752 271.085 505.752C275.086 501.751 277.333 496.325 277.333 490.667V458.453C323.394 453.149 366.278 432.325 398.929 399.406C431.58 366.488 452.053 323.436 456.981 277.333H490.667C496.325 277.333 501.751 275.086 505.752 271.085C509.752 267.084 512 261.658 512 256C512 250.342 509.752 244.916 505.752 240.915C501.751 236.914 496.325 234.667 490.667 234.667ZM277.333 415.339V384C277.333 378.342 275.086 372.916 271.085 368.915C267.084 364.914 261.658 362.667 256 362.667C250.342 362.667 244.916 364.914 240.915 368.915C236.914 372.916 234.667 378.342 234.667 384V415.872C199.307 411.481 166.396 395.508 141.068 370.447C115.74 345.385 99.4207 312.644 94.656 277.333H128C133.658 277.333 139.084 275.086 143.085 271.085C147.086 267.084 149.333 261.658 149.333 256C149.333 250.342 147.086 244.916 143.085 240.915C139.084 236.914 133.658 234.667 128 234.667H94.656C99.4207 199.356 115.74 166.615 141.068 141.553C166.396 116.492 199.307 100.519 234.667 96.128V128C234.667 133.658 236.914 139.084 240.915 143.085C244.916 147.086 250.342 149.333 256 149.333C261.658 149.333 267.084 147.086 271.085 143.085C275.086 139.084 277.333 133.658 277.333 128V96.6613C311.987 101.727 344.051 117.932 368.682 142.828C393.313 167.725 409.173 199.961 413.867 234.667H384C378.342 234.667 372.916 236.914 368.915 240.915C364.914 244.916 362.667 250.342 362.667 256C362.667 261.658 364.914 267.084 368.915 271.085C372.916 275.086 378.342 277.333 384 277.333H413.867C409.173 312.039 393.313 344.275 368.682 369.172C344.051 394.068 311.987 410.273 277.333 415.339Z" fill="#5B5B5B"/>
<path d="M256 192C243.342 192 230.968 195.754 220.443 202.786C209.919 209.818 201.716 219.814 196.872 231.508C192.028 243.203 190.76 256.071 193.23 268.486C195.699 280.901 201.795 292.304 210.745 301.255C219.696 310.205 231.099 316.301 243.514 318.77C255.929 321.24 268.797 319.972 280.492 315.128C292.186 310.284 302.182 302.081 309.214 291.557C316.246 281.032 320 268.658 320 256C320 239.026 313.257 222.747 301.255 210.745C289.252 198.743 272.974 192 256 192ZM256 277.333C251.781 277.333 247.656 276.082 244.148 273.738C240.64 271.394 237.905 268.062 236.291 264.164C234.676 260.266 234.253 255.976 235.077 251.838C235.9 247.7 237.932 243.899 240.915 240.915C243.899 237.932 247.7 235.9 251.838 235.077C255.976 234.253 260.266 234.676 264.164 236.291C268.062 237.905 271.394 240.64 273.738 244.148C276.082 247.656 277.333 251.781 277.333 256C277.333 261.658 275.086 267.084 271.085 271.085C267.084 275.086 261.658 277.333 256 277.333Z" fill="#5B5B5B"/>
</g>
<defs>
<clipPath id="clip0_61_13">
<rect width="512" height="512" fill="white"/>
</clipPath>
</defs>
</svg>
