<svg width="388" height="387" viewBox="0 0 388 387" fill="none" xmlns="http://www.w3.org/2000/svg">
<path d="M174.08 263.776C167.356 263.991 160.656 262.88 154.362 260.505C148.068 258.131 142.303 254.54 137.396 249.938C127.487 240.643 121.676 227.793 121.242 214.214C120.807 200.635 125.785 187.439 135.079 177.53C144.374 167.621 157.224 161.81 170.803 161.376C173.519 161.213 176.188 162.135 178.224 163.94C180.26 165.746 181.495 168.285 181.658 171.001C181.821 173.717 180.898 176.386 179.093 178.422C177.288 180.458 174.748 181.693 172.032 181.856C166.151 182.263 160.511 184.353 155.786 187.878C151.06 191.403 147.449 196.213 145.383 201.734C143.316 207.255 142.882 213.254 144.132 219.015C145.381 224.776 148.263 230.056 152.431 234.225C156.6 238.393 161.879 241.274 167.641 242.524C173.402 243.774 179.401 243.34 184.922 241.273C190.443 239.207 195.253 235.595 198.778 230.87C202.302 226.145 204.393 220.505 204.8 214.624C205.01 211.926 206.259 209.414 208.283 207.619C210.308 205.823 212.951 204.884 215.654 204.998C217 205.076 218.317 205.42 219.529 206.008C220.742 206.596 221.827 207.418 222.721 208.427C223.615 209.435 224.302 210.61 224.741 211.884C225.18 213.159 225.363 214.507 225.28 215.852C224.446 228.856 218.686 241.052 209.173 249.956C199.66 258.86 187.11 263.802 174.08 263.776ZM91.9552 161.376C89.7487 161.321 87.6089 160.608 85.8112 159.328C83.6385 157.698 82.2022 155.272 81.8181 152.584C81.434 149.895 82.1337 147.164 83.7632 144.992C94.2871 130.986 107.927 119.624 123.603 111.803C139.28 103.983 156.561 99.9198 174.08 99.9357C192.281 99.9062 210.211 104.336 226.304 112.838C228.694 114.142 230.468 116.341 231.236 118.953C232.004 121.565 231.704 124.375 230.4 126.765C229.096 129.154 226.897 130.929 224.285 131.697C221.673 132.465 218.864 132.164 216.474 130.86C197.072 120.719 174.683 117.849 153.35 122.769C132.018 127.689 113.147 140.074 100.147 157.689C99.142 158.874 97.885 159.82 96.4678 160.458C95.0506 161.096 93.5089 161.409 91.9552 161.376Z" fill="#22C55E"/>
<path d="M174.08 325.216C144.223 325.162 115.604 313.277 94.4913 292.164C73.3789 271.052 61.4941 242.433 61.44 212.576C61.4694 205.012 62.2238 197.468 63.6928 190.048C63.9618 188.703 64.4929 187.424 65.256 186.285C66.0191 185.146 66.9991 184.168 68.1402 183.407C69.2812 182.646 70.5609 182.118 71.9062 181.852C73.2515 181.585 74.6361 181.587 75.9808 181.856C77.3255 182.125 78.6041 182.656 79.7436 183.419C80.883 184.182 81.861 185.162 82.6217 186.303C83.3824 187.444 83.9109 188.724 84.1771 190.069C84.4432 191.414 84.4418 192.799 84.1728 194.144C81.6106 206.762 81.7209 219.778 84.4966 232.351C87.2724 244.924 92.652 256.776 100.289 267.143C107.925 277.51 117.65 286.161 128.835 292.54C140.019 298.918 152.417 302.883 165.228 304.177C178.038 305.471 190.978 304.066 203.213 300.053C215.447 296.04 226.705 289.508 236.261 280.877C245.817 272.247 253.458 261.71 258.692 249.946C263.926 238.182 266.637 225.452 266.65 212.576C266.671 197.805 263.085 183.252 256.205 170.182C255.559 168.999 255.153 167.7 255.01 166.36C254.866 165.019 254.988 163.664 255.369 162.371C255.749 161.077 256.38 159.872 257.227 158.823C258.073 157.773 259.117 156.901 260.301 156.256C261.484 155.61 262.783 155.204 264.123 155.061C265.464 154.917 266.819 155.039 268.112 155.42C269.405 155.8 270.611 156.431 271.66 157.277C272.71 158.124 273.582 159.168 274.227 160.352C282.587 176.481 286.876 194.41 286.72 212.576C286.666 242.433 274.781 271.052 253.669 292.164C232.556 313.277 203.937 325.162 174.08 325.216Z" fill="#22C55E"/>
<path d="M174.08 386.656C127.911 386.656 83.6332 368.315 50.9869 335.669C18.3405 303.023 0 258.745 0 212.576C0 166.407 18.3405 122.129 50.9869 89.4827C83.6332 56.8364 127.911 38.4959 174.08 38.4959C193.466 38.4619 212.717 41.7166 231.014 48.1215C232.315 48.5505 233.515 49.236 234.546 50.1373C235.577 51.0385 236.416 52.1373 237.015 53.3687C237.613 54.6 237.959 55.9389 238.031 57.3061C238.103 58.6733 237.9 60.0411 237.435 61.3286C236.969 62.6161 236.25 63.7971 235.32 64.8018C234.39 65.8065 233.268 66.6145 232.02 67.178C230.772 67.7415 229.424 68.0491 228.055 68.0825C226.687 68.116 225.325 67.8746 224.051 67.3727C207.988 61.7701 191.092 58.9309 174.08 58.9759C143.701 58.9759 114.004 67.9844 88.7444 84.8621C63.485 101.74 43.7977 125.729 32.1721 153.796C20.5465 181.862 17.5047 212.746 23.4314 242.542C29.3581 272.337 43.9871 299.706 65.4684 321.187C86.9497 342.669 114.319 357.298 144.114 363.224C173.91 369.151 204.793 366.109 232.86 354.484C260.927 342.858 284.916 323.171 301.794 297.911C318.672 272.652 327.68 242.955 327.68 212.576C327.725 195.564 324.886 178.668 319.283 162.605C318.781 161.331 318.54 159.969 318.573 158.601C318.607 157.232 318.914 155.884 319.478 154.636C320.041 153.388 320.849 152.266 321.854 151.336C322.859 150.406 324.04 149.687 325.327 149.221C326.615 148.756 327.983 148.553 329.35 148.625C330.717 148.697 332.056 149.043 333.287 149.641C334.519 150.24 335.617 151.079 336.519 152.11C337.42 153.14 338.105 154.341 338.534 155.641C344.939 173.939 348.194 193.19 348.16 212.576C348.106 258.728 329.748 302.975 297.113 335.609C264.479 368.244 220.232 386.602 174.08 386.656Z" fill="#22C55E"/>
<path d="M174.08 222.816C172.737 222.832 171.405 222.567 170.171 222.038C168.936 221.509 167.826 220.728 166.912 219.744C165.932 218.824 165.152 217.714 164.618 216.481C164.084 215.248 163.809 213.919 163.809 212.576C163.809 211.232 164.084 209.903 164.618 208.67C165.152 207.437 165.932 206.327 166.912 205.408L339.354 32.9662C340.295 32.0248 341.412 31.2781 342.642 30.7687C343.872 30.2593 345.19 29.9971 346.522 29.9971C347.853 29.9971 349.171 30.2593 350.401 30.7687C351.631 31.2781 352.748 32.0248 353.69 32.9662C354.631 33.9075 355.378 35.025 355.887 36.2549C356.396 37.4847 356.659 38.8029 356.659 40.1342C356.659 41.4654 356.396 42.7836 355.887 44.0134C355.378 45.2433 354.631 46.3608 353.69 47.3021L181.248 219.744C180.334 220.728 179.224 221.509 177.989 222.038C176.755 222.567 175.423 222.832 174.08 222.816Z" fill="#22C55E"/>
<path d="M318.874 135.981H316.621L269.517 125.126C267.645 124.756 265.925 123.839 264.576 122.489C263.227 121.14 262.309 119.42 261.939 117.549L251.085 70.4446C250.687 68.7776 250.723 67.0366 251.189 65.3875C251.655 63.7384 252.536 62.2361 253.747 61.0238L311.706 3.06539C312.977 1.74881 314.583 0.804826 316.352 0.33556C318.121 -0.133706 319.984 -0.110384 321.741 0.402997C323.505 0.907953 325.101 1.87767 326.362 3.21072C327.623 4.54376 328.503 6.19116 328.909 7.9806L338.33 48.9406L379.29 58.3614C382.005 58.9589 384.373 60.6107 385.871 62.9536C387.368 65.2964 387.874 68.1384 387.277 70.8542C386.679 73.57 385.027 75.9373 382.685 77.4351C380.342 78.933 377.5 79.4389 374.784 78.8414L327.68 66.963C325.734 66.5146 323.953 65.5279 322.54 64.1156C321.128 62.7032 320.141 60.9222 319.693 58.9758L313.139 29.8942L272.179 70.8542L280.371 106.08L315.597 114.272L342.016 88.0574C343.93 86.1812 346.504 85.1302 349.184 85.1302C351.864 85.1302 354.438 86.1812 356.352 88.0574C357.312 89.0093 358.074 90.1419 358.593 91.3897C359.113 92.6376 359.381 93.976 359.381 95.3278C359.381 96.6796 359.113 98.018 358.593 99.2659C358.074 100.514 357.312 101.646 356.352 102.598L326.042 132.909C325.127 133.892 324.017 134.674 322.783 135.203C321.548 135.732 320.217 135.997 318.874 135.981Z" fill="#22C55E"/>
</svg>
