<svg width="384" height="427" viewBox="0 0 384 427" fill="none" xmlns="http://www.w3.org/2000/svg">
<path d="M149.333 341.333C154.991 341.333 160.418 339.086 164.418 335.085C168.419 331.084 170.667 325.658 170.667 320V192C170.667 186.342 168.419 180.916 164.418 176.915C160.418 172.914 154.991 170.667 149.333 170.667C143.675 170.667 138.249 172.914 134.248 176.915C130.248 180.916 128 186.342 128 192V320C128 325.658 130.248 331.084 134.248 335.085C138.249 339.086 143.675 341.333 149.333 341.333ZM362.667 85.3333H277.333V64C277.333 47.0261 270.591 30.7475 258.588 18.7452C246.586 6.74284 230.307 0 213.333 0H170.667C153.693 0 137.414 6.74284 125.412 18.7452C113.409 30.7475 106.667 47.0261 106.667 64V85.3333H21.3333C15.6754 85.3333 10.2492 87.5809 6.24839 91.5817C2.24761 95.5825 0 101.009 0 106.667C0 112.325 2.24761 117.751 6.24839 121.752C10.2492 125.752 15.6754 128 21.3333 128H42.6667V362.667C42.6667 379.64 49.4095 395.919 61.4118 407.921C73.4142 419.924 89.6928 426.667 106.667 426.667H277.333C294.307 426.667 310.586 419.924 322.588 407.921C334.591 395.919 341.333 379.64 341.333 362.667V128H362.667C368.325 128 373.751 125.752 377.752 121.752C381.752 117.751 384 112.325 384 106.667C384 101.009 381.752 95.5825 377.752 91.5817C373.751 87.5809 368.325 85.3333 362.667 85.3333ZM149.333 64C149.333 58.342 151.581 52.9158 155.582 48.9151C159.583 44.9143 165.009 42.6667 170.667 42.6667H213.333C218.991 42.6667 224.418 44.9143 228.418 48.9151C232.419 52.9158 234.667 58.342 234.667 64V85.3333H149.333V64ZM298.667 362.667C298.667 368.325 296.419 373.751 292.418 377.752C288.418 381.752 282.991 384 277.333 384H106.667C101.009 384 95.5825 381.752 91.5817 377.752C87.581 373.751 85.3333 368.325 85.3333 362.667V128H298.667V362.667ZM234.667 341.333C240.325 341.333 245.751 339.086 249.752 335.085C253.752 331.084 256 325.658 256 320V192C256 186.342 253.752 180.916 249.752 176.915C245.751 172.914 240.325 170.667 234.667 170.667C229.009 170.667 223.583 172.914 219.582 176.915C215.581 180.916 213.333 186.342 213.333 192V320C213.333 325.658 215.581 331.084 219.582 335.085C223.583 339.086 229.009 341.333 234.667 341.333Z" fill="#B4B4B4"/>
</svg>
