<svg width="512" height="512" viewBox="0 0 512 512" fill="none" xmlns="http://www.w3.org/2000/svg">
<path d="M448.681 119.401L328.92 291.88C328.462 292.537 327.878 293.097 327.203 293.527C326.528 293.958 325.775 294.251 324.986 294.39C324.197 294.528 323.389 294.51 322.607 294.336C321.826 294.161 321.087 293.835 320.432 293.374H320.433L206.29 212.798L204.642 211.636L203.493 213.292L77.0769 395.388L77.074 395.393C75.9019 397.091 74.0278 397.994 72.0964 397.999C70.9786 397.981 69.8859 397.662 68.9353 397.073C67.9815 396.483 67.2063 395.644 66.6921 394.646C66.178 393.649 65.9443 392.531 66.0164 391.411C66.0885 390.291 66.4635 389.212 67.1013 388.289L67.1003 388.288L198.171 199.524L198.178 199.515C198.63 198.855 199.208 198.292 199.88 197.858C200.551 197.425 201.303 197.13 202.09 196.99C202.877 196.851 203.684 196.869 204.464 197.045C205.243 197.221 205.981 197.55 206.632 198.014L206.638 198.018L320.782 278.61L322.429 279.772L323.579 278.116L438.669 112.332L448.681 119.401Z" fill="black" stroke="black" stroke-width="4"/>
<path d="M450.155 99.8867C450.929 99.7441 451.723 99.7567 452.492 99.9238C453.261 100.091 453.989 100.409 454.634 100.86C455.278 101.311 455.827 101.886 456.248 102.551C456.669 103.216 456.953 103.958 457.084 104.733L457.087 104.747L464.686 147.804L464.693 147.842L464.701 147.879C464.872 148.668 464.882 149.483 464.73 150.276C464.579 151.069 464.269 151.824 463.819 152.494C463.369 153.164 462.789 153.736 462.112 154.177C461.436 154.617 460.677 154.917 459.882 155.058C459.087 155.198 458.272 155.177 457.485 154.995C456.699 154.813 455.957 154.474 455.305 153.999C454.652 153.524 454.103 152.922 453.688 152.229C453.274 151.537 453.004 150.767 452.893 149.967L452.891 149.944L452.887 149.922L447.431 115.986L446.998 113.297L444.761 114.414L409.265 119.282L409.217 119.289L409.17 119.298C408.395 119.442 407.599 119.431 406.829 119.265C406.059 119.098 405.329 118.78 404.683 118.329C404.037 117.878 403.487 117.303 403.065 116.637C402.644 115.971 402.36 115.227 402.228 114.45L402.227 114.442L402.226 114.434L402.181 114.142C402.094 113.459 402.125 112.766 402.274 112.093C402.445 111.324 402.765 110.595 403.218 109.95C403.67 109.305 404.245 108.756 404.91 108.334C405.575 107.912 406.317 107.625 407.094 107.49L407.1 107.489L450.14 99.8896L450.147 99.8877L450.155 99.8867Z" fill="black" stroke="black" stroke-width="4"/>
</svg>
