<svg width="427" height="427" viewBox="0 0 427 427" fill="none" xmlns="http://www.w3.org/2000/svg">
<path d="M143.147 121.707L192 72.6403V277.227C192 282.885 194.248 288.311 198.248 292.312C202.249 296.313 207.675 298.56 213.333 298.56C218.991 298.56 224.417 296.313 228.418 292.312C232.419 288.311 234.667 282.885 234.667 277.227V72.6403L283.52 121.707C285.503 123.707 287.863 125.294 290.462 126.377C293.062 127.46 295.85 128.017 298.667 128.017C301.483 128.017 304.271 127.46 306.871 126.377C309.471 125.294 311.83 123.707 313.813 121.707C315.813 119.724 317.4 117.364 318.483 114.765C319.566 112.165 320.124 109.377 320.124 106.56C320.124 103.744 319.566 100.956 318.483 98.356C317.4 95.7563 315.813 93.3968 313.813 91.4136L228.48 6.08029C226.451 4.13809 224.059 2.61564 221.44 1.60029C216.246 -0.533429 210.42 -0.533429 205.227 1.60029C202.608 2.61564 200.216 4.13809 198.187 6.08029L112.853 91.4136C110.864 93.4027 109.286 95.7641 108.21 98.363C107.133 100.962 106.579 103.747 106.579 106.56C106.579 109.373 107.133 112.159 108.21 114.758C109.286 117.356 110.864 119.718 112.853 121.707C114.842 123.696 117.204 125.274 119.803 126.35C122.402 127.427 125.187 127.981 128 127.981C130.813 127.981 133.598 127.427 136.197 126.35C138.796 125.274 141.158 123.696 143.147 121.707ZM405.333 213.227C399.675 213.227 394.249 215.475 390.248 219.475C386.248 223.476 384 228.902 384 234.56V362.56C384 368.218 381.752 373.644 377.752 377.645C373.751 381.646 368.325 383.894 362.667 383.894H64C58.342 383.894 52.9158 381.646 48.9151 377.645C44.9143 373.644 42.6667 368.218 42.6667 362.56V234.56C42.6667 228.902 40.4191 223.476 36.4183 219.475C32.4175 215.475 26.9913 213.227 21.3333 213.227C15.6754 213.227 10.2492 215.475 6.24839 219.475C2.24761 223.476 0 228.902 0 234.56V362.56C0 379.534 6.74284 395.813 18.7452 407.815C30.7475 419.817 47.0261 426.56 64 426.56H362.667C379.64 426.56 395.919 419.817 407.921 407.815C419.924 395.813 426.667 379.534 426.667 362.56V234.56C426.667 228.902 424.419 223.476 420.418 219.475C416.417 215.475 410.991 213.227 405.333 213.227Z" fill="#B4B4B4"/>
</svg>
