<svg width="512" height="512" viewBox="0 0 512 512" fill="none" xmlns="http://www.w3.org/2000/svg">
<path d="M274.15 461L251.9 438.75L198.8 385.65L134.3 321.15L78.85 265.7C69.85 256.7 61 247.6 51.85 238.7L51.45 238.3V273.65L73.7 251.4L126.8 198.3L191.3 133.8L246.75 78.3499C255.75 69.3499 264.85 60.4499 273.75 51.3499L274.15 50.9499C278.7 46.3999 281.45 39.6999 281.45 33.2499C281.45 27.0999 278.75 19.7999 274.15 15.5499C269.4 11.1999 263.15 7.94992 256.45 8.24992C249.8 8.54992 243.55 10.7999 238.75 15.5499L216.5 37.7999L163.4 90.8999L98.9 155.4L43.45 210.85C34.45 219.85 25.35 228.75 16.45 237.85L16.05 238.25C6.5 247.8 6.5 264.05 16.05 273.6C23.5 281.1 30.95 288.5 38.35 295.95L91.45 349.05L155.95 413.55L211.4 469C220.4 478 229.3 487.1 238.4 496L238.8 496.4C243.35 500.95 250.05 503.7 256.5 503.7C262.65 503.7 269.95 501 274.2 496.4C278.55 491.65 281.8 485.4 281.5 478.7C281.15 472.05 278.95 465.8 274.15 461Z" fill="white"/>
<path d="M33.65 281H460.25C466 281 471.8 281.05 477.55 281H478.3C484.7 281 491.45 278.2 496 273.7C500.35 269.35 503.6 262.25 503.3 256C503 249.55 500.9 242.85 496 238.3C491.1 233.8 485.1 231 478.3 231H51.7C45.95 231 40.15 230.95 34.4 231H33.65C27.25 231 20.5 233.8 15.95 238.3C11.6 242.65 8.35 249.75 8.65 256C8.95 262.45 11.05 269.15 15.95 273.7C20.9 278.15 26.9 281 33.65 281Z" fill="white"/>
</svg>
