<svg width="512" height="512" viewBox="0 0 512 512" fill="none" xmlns="http://www.w3.org/2000/svg">
<g clip-path="url(#clip0_39_21)">
<path d="M256 42.6667C138.133 42.6667 42.6667 138.133 42.6667 256C42.6667 373.867 138.133 469.333 256 469.333C373.867 469.333 469.333 373.867 469.333 256C469.333 138.133 373.867 42.6667 256 42.6667ZM85.3334 256C85.3334 161.707 161.707 85.3334 256 85.3334C295.467 85.3334 331.627 98.8801 360.533 121.28L121.28 360.533C98.88 331.627 85.3334 295.467 85.3334 256ZM256 426.667C216.533 426.667 180.373 413.12 151.467 390.72L390.72 151.467C413.12 180.373 426.667 216.533 426.667 256C426.667 350.293 350.293 426.667 256 426.667Z" fill="white"/>
</g>
<defs>
<clipPath id="clip0_39_21">
<rect width="512" height="512" fill="white"/>
</clipPath>
</defs>
</svg>
