<svg width="512" height="512" viewBox="0 0 512 512" fill="none" xmlns="http://www.w3.org/2000/svg">
<path d="M432 248C436.952 247.986 441.778 246.441 445.817 243.576C449.855 240.712 452.909 236.668 454.56 232H488C490.122 232 492.157 231.157 493.657 229.657C495.157 228.157 496 226.122 496 224C496 221.878 495.157 219.843 493.657 218.343C492.157 216.843 490.122 216 488 216H454.56C452.909 211.332 449.855 207.288 445.817 204.424C441.778 201.559 436.952 200.014 432 200H416V184H432C436.952 183.986 441.778 182.441 445.817 179.576C449.855 176.712 452.909 172.668 454.56 168H488C490.122 168 492.157 167.157 493.657 165.657C495.157 164.157 496 162.122 496 160C496 157.878 495.157 155.843 493.657 154.343C492.157 152.843 490.122 152 488 152H454.56C452.909 147.332 449.855 143.288 445.817 140.424C441.778 137.559 436.952 136.014 432 136H413.2C410.345 127.947 405.391 120.802 398.852 115.304C392.312 109.805 384.423 106.151 376 104.72V88C375.986 83.0484 374.441 78.2224 371.577 74.1835C368.712 70.1446 364.668 67.0905 360 65.44V32C360 29.8783 359.157 27.8434 357.657 26.3431C356.157 24.8429 354.122 24 352 24C349.878 24 347.843 24.8429 346.343 26.3431C344.843 27.8434 344 29.8783 344 32V65.44C339.332 67.0905 335.288 70.1446 332.423 74.1835C329.559 78.2224 328.014 83.0484 328 88V104H312V88C311.986 83.0484 310.441 78.2224 307.577 74.1835C304.712 70.1446 300.668 67.0905 296 65.44V32C296 29.8783 295.157 27.8434 293.657 26.3431C292.157 24.8429 290.122 24 288 24C285.878 24 283.843 24.8429 282.343 26.3431C280.843 27.8434 280 29.8783 280 32V65.44C275.332 67.0905 271.288 70.1446 268.423 74.1835C265.559 78.2224 264.014 83.0484 264 88V104H248V88C247.986 83.0484 246.441 78.2224 243.576 74.1835C240.712 70.1446 236.668 67.0905 232 65.44V32C232 29.8783 231.157 27.8434 229.657 26.3431C228.157 24.8429 226.122 24 224 24C221.878 24 219.843 24.8429 218.343 26.3431C216.843 27.8434 216 29.8783 216 32V65.44C211.332 67.0905 207.288 70.1446 204.424 74.1835C201.559 78.2224 200.014 83.0484 200 88V104H184V88C183.986 83.0484 182.441 78.2224 179.576 74.1835C176.712 70.1446 172.668 67.0905 168 65.44V32C168 29.8783 167.157 27.8434 165.657 26.3431C164.157 24.8429 162.122 24 160 24C157.878 24 155.843 24.8429 154.343 26.3431C152.843 27.8434 152 29.8783 152 32V65.44C147.332 67.0905 143.288 70.1446 140.424 74.1835C137.559 78.2224 136.014 83.0484 136 88V104.72C127.577 106.151 119.688 109.805 113.148 115.304C106.609 120.802 101.656 127.947 98.8 136H80C75.0484 136.014 70.2224 137.559 66.1835 140.424C62.1446 143.288 59.0905 147.332 57.44 152H24C21.8783 152 19.8434 152.843 18.3431 154.343C16.8429 155.843 16 157.878 16 160C16 162.122 16.8429 164.157 18.3431 165.657C19.8434 167.157 21.8783 168 24 168H57.44C59.0905 172.668 62.1446 176.712 66.1835 179.576C70.2224 182.441 75.0484 183.986 80 184H96V200H80C75.0484 200.014 70.2224 201.559 66.1835 204.424C62.1446 207.288 59.0905 211.332 57.44 216H24C21.8783 216 19.8434 216.843 18.3431 218.343C16.8429 219.843 16 221.878 16 224C16 226.122 16.8429 228.157 18.3431 229.657C19.8434 231.157 21.8783 232 24 232H57.44C59.0905 236.668 62.1446 240.712 66.1835 243.576C70.2224 246.441 75.0484 247.986 80 248H96V264H80C75.0484 264.014 70.2224 265.559 66.1835 268.423C62.1446 271.288 59.0905 275.332 57.44 280H24C21.8783 280 19.8434 280.843 18.3431 282.343C16.8429 283.843 16 285.878 16 288C16 290.122 16.8429 292.157 18.3431 293.657C19.8434 295.157 21.8783 296 24 296H57.44C59.0905 300.668 62.1446 304.712 66.1835 307.577C70.2224 310.441 75.0484 311.986 80 312H96V328H80C75.0484 328.014 70.2224 329.559 66.1835 332.423C62.1446 335.288 59.0905 339.332 57.44 344H24C21.8783 344 19.8434 344.843 18.3431 346.343C16.8429 347.843 16 349.878 16 352C16 354.122 16.8429 356.157 18.3431 357.657C19.8434 359.157 21.8783 360 24 360H57.44C59.0905 364.668 62.1446 368.712 66.1835 371.577C70.2224 374.441 75.0484 375.986 80 376H98.8C101.656 384.053 106.609 391.198 113.148 396.696C119.688 402.195 127.577 405.849 136 407.28V424C136.014 428.952 137.559 433.778 140.424 437.817C143.288 441.855 147.332 444.909 152 446.56V480C152 482.122 152.843 484.157 154.343 485.657C155.843 487.157 157.878 488 160 488C162.122 488 164.157 487.157 165.657 485.657C167.157 484.157 168 482.122 168 480V446.56C172.668 444.909 176.712 441.855 179.576 437.817C182.441 433.778 183.986 428.952 184 424V408H200V424C200.014 428.952 201.559 433.778 204.424 437.817C207.288 441.855 211.332 444.909 216 446.56V480C216 482.122 216.843 484.157 218.343 485.657C219.843 487.157 221.878 488 224 488C226.122 488 228.157 487.157 229.657 485.657C231.157 484.157 232 482.122 232 480V446.56C236.668 444.909 240.712 441.855 243.576 437.817C246.441 433.778 247.986 428.952 248 424V408H264V424C264.014 428.952 265.559 433.778 268.423 437.817C271.288 441.855 275.332 444.909 280 446.56V480C280 482.122 280.843 484.157 282.343 485.657C283.843 487.157 285.878 488 288 488C290.122 488 292.157 487.157 293.657 485.657C295.157 484.157 296 482.122 296 480V446.56C300.668 444.909 304.712 441.855 307.577 437.817C310.441 433.778 311.986 428.952 312 424V408H328V424C328.014 428.952 329.559 433.778 332.423 437.817C335.288 441.855 339.332 444.909 344 446.56V480C344 482.122 344.843 484.157 346.343 485.657C347.843 487.157 349.878 488 352 488C354.122 488 356.157 487.157 357.657 485.657C359.157 484.157 360 482.122 360 480V446.56C364.668 444.909 368.712 441.855 371.577 437.817C374.441 433.778 375.986 428.952 376 424V407.28C384.423 405.849 392.312 402.195 398.852 396.696C405.391 391.198 410.345 384.053 413.2 376H432C436.952 375.986 441.778 374.441 445.817 371.577C449.855 368.712 452.909 364.668 454.56 360H488C490.122 360 492.157 359.157 493.657 357.657C495.157 356.157 496 354.122 496 352C496 349.878 495.157 347.843 493.657 346.343C492.157 344.843 490.122 344 488 344H454.56C452.909 339.332 449.855 335.288 445.817 332.423C441.778 329.559 436.952 328.014 432 328H416V312H432C436.952 311.986 441.778 310.441 445.817 307.577C449.855 304.712 452.909 300.668 454.56 296H488C490.122 296 492.157 295.157 493.657 293.657C495.157 292.157 496 290.122 496 288C496 285.878 495.157 283.843 493.657 282.343C492.157 280.843 490.122 280 488 280H454.56C452.909 275.332 449.855 271.288 445.817 268.423C441.778 265.559 436.952 264.014 432 264H416V248H432ZM416 152H432C434.122 152 436.157 152.843 437.657 154.343C439.157 155.843 440 157.878 440 160C440 162.122 439.157 164.157 437.657 165.657C436.157 167.157 434.122 168 432 168H416V152ZM416 216H432C434.122 216 436.157 216.843 437.657 218.343C439.157 219.843 440 221.878 440 224C440 226.122 439.157 228.157 437.657 229.657C436.157 231.157 434.122 232 432 232H416V216ZM96 360H80C77.8783 360 75.8434 359.157 74.3431 357.657C72.8429 356.157 72 354.122 72 352C72 349.878 72.8429 347.843 74.3431 346.343C75.8434 344.843 77.8783 344 80 344H96V360ZM96 296H80C77.8783 296 75.8434 295.157 74.3431 293.657C72.8429 292.157 72 290.122 72 288C72 285.878 72.8429 283.843 74.3431 282.343C75.8434 280.843 77.8783 280 80 280H96V296ZM96 232H80C77.8783 232 75.8434 231.157 74.3431 229.657C72.8429 228.157 72 226.122 72 224C72 221.878 72.8429 219.843 74.3431 218.343C75.8434 216.843 77.8783 216 80 216H96V232ZM96 168H80C77.8783 168 75.8434 167.157 74.3431 165.657C72.8429 164.157 72 162.122 72 160C72 157.878 72.8429 155.843 74.3431 154.343C75.8434 152.843 77.8783 152 80 152H96V168ZM344 88C344 85.8783 344.843 83.8434 346.343 82.3431C347.843 80.8429 349.878 80 352 80C354.122 80 356.157 80.8429 357.657 82.3431C359.157 83.8434 360 85.8783 360 88V104H344V88ZM280 88C280 85.8783 280.843 83.8434 282.343 82.3431C283.843 80.8429 285.878 80 288 80C290.122 80 292.157 80.8429 293.657 82.3431C295.157 83.8434 296 85.8783 296 88V104H280V88ZM216 88C216 85.8783 216.843 83.8434 218.343 82.3431C219.843 80.8429 221.878 80 224 80C226.122 80 228.157 80.8429 229.657 82.3431C231.157 83.8434 232 85.8783 232 88V104H216V88ZM152 88C152 85.8783 152.843 83.8434 154.343 82.3431C155.843 80.8429 157.878 80 160 80C162.122 80 164.157 80.8429 165.657 82.3431C167.157 83.8434 168 85.8783 168 88V104H152V88ZM168 424C168 426.122 167.157 428.157 165.657 429.657C164.157 431.157 162.122 432 160 432C157.878 432 155.843 431.157 154.343 429.657C152.843 428.157 152 426.122 152 424V408H168V424ZM232 424C232 426.122 231.157 428.157 229.657 429.657C228.157 431.157 226.122 432 224 432C221.878 432 219.843 431.157 218.343 429.657C216.843 428.157 216 426.122 216 424V408H232V424ZM296 424C296 426.122 295.157 428.157 293.657 429.657C292.157 431.157 290.122 432 288 432C285.878 432 283.843 431.157 282.343 429.657C280.843 428.157 280 426.122 280 424V408H296V424ZM360 424C360 426.122 359.157 428.157 357.657 429.657C356.157 431.157 354.122 432 352 432C349.878 432 347.843 431.157 346.343 429.657C344.843 428.157 344 426.122 344 424V408H360V424ZM400 360C400 368.487 396.629 376.626 390.627 382.627C384.626 388.629 376.487 392 368 392H144C135.513 392 127.374 388.629 121.373 382.627C115.371 376.626 112 368.487 112 360V152C112 143.513 115.371 135.374 121.373 129.373C127.374 123.371 135.513 120 144 120H368C376.487 120 384.626 123.371 390.627 129.373C396.629 135.374 400 143.513 400 152V360ZM432 344C434.122 344 436.157 344.843 437.657 346.343C439.157 347.843 440 349.878 440 352C440 354.122 439.157 356.157 437.657 357.657C436.157 359.157 434.122 360 432 360H416V344H432ZM432 280C434.122 280 436.157 280.843 437.657 282.343C439.157 283.843 440 285.878 440 288C440 290.122 439.157 292.157 437.657 293.657C436.157 295.157 434.122 296 432 296H416V280H432Z" fill="white"/>
<path opacity="0.5" d="M440 160C440 162.122 439.157 164.157 437.657 165.657C436.157 167.157 434.122 168 432 168H416V152H432C434.122 152 436.157 152.843 437.657 154.343C439.157 155.843 440 157.878 440 160ZM440 224C440 226.122 439.157 228.157 437.657 229.657C436.157 231.157 434.122 232 432 232H416V216H432C434.122 216 436.157 216.843 437.657 218.343C439.157 219.843 440 221.878 440 224ZM440 288C440 290.122 439.157 292.157 437.657 293.657C436.157 295.157 434.122 296 432 296H416V280H432C434.122 280 436.157 280.843 437.657 282.343C439.157 283.843 440 285.878 440 288ZM440 352C440 354.122 439.157 356.157 437.657 357.657C436.157 359.157 434.122 360 432 360H416V344H432C434.122 344 436.157 344.843 437.657 346.343C439.157 347.843 440 349.878 440 352ZM360 408V424C360 426.122 359.157 428.157 357.657 429.657C356.157 431.157 354.122 432 352 432C349.878 432 347.843 431.157 346.343 429.657C344.843 428.157 344 426.122 344 424V408H360ZM296 408V424C296 426.122 295.157 428.157 293.657 429.657C292.157 431.157 290.122 432 288 432C285.878 432 283.843 431.157 282.343 429.657C280.843 428.157 280 426.122 280 424V408H296ZM232 408V424C232 426.122 231.157 428.157 229.657 429.657C228.157 431.157 226.122 432 224 432C221.878 432 219.843 431.157 218.343 429.657C216.843 428.157 216 426.122 216 424V408H232ZM168 408V424C168 426.122 167.157 428.157 165.657 429.657C164.157 431.157 162.122 432 160 432C157.878 432 155.843 431.157 154.343 429.657C152.843 428.157 152 426.122 152 424V408H168ZM96 344V360H80C77.8783 360 75.8434 359.157 74.3431 357.657C72.8429 356.157 72 354.122 72 352C72 349.878 72.8429 347.843 74.3431 346.343C75.8434 344.843 77.8783 344 80 344H96ZM96 280V296H80C77.8783 296 75.8434 295.157 74.3431 293.657C72.8429 292.157 72 290.122 72 288C72 285.878 72.8429 283.843 74.3431 282.343C75.8434 280.843 77.8783 280 80 280H96ZM96 216V232H80C77.8783 232 75.8434 231.157 74.3431 229.657C72.8429 228.157 72 226.122 72 224C72 221.878 72.8429 219.843 74.3431 218.343C75.8434 216.843 77.8783 216 80 216H96ZM96 152V168H80C77.8783 168 75.8434 167.157 74.3431 165.657C72.8429 164.157 72 162.122 72 160C72 157.878 72.8429 155.843 74.3431 154.343C75.8434 152.843 77.8783 152 80 152H96ZM168 88V104H152V88C152 85.8783 152.843 83.8434 154.343 82.3431C155.843 80.8429 157.878 80 160 80C162.122 80 164.157 80.8429 165.657 82.3431C167.157 83.8434 168 85.8783 168 88ZM232 88V104H216V88C216 85.8783 216.843 83.8434 218.343 82.3431C219.843 80.8429 221.878 80 224 80C226.122 80 228.157 80.8429 229.657 82.3431C231.157 83.8434 232 85.8783 232 88ZM296 88V104H280V88C280 85.8783 280.843 83.8434 282.343 82.3431C283.843 80.8429 285.878 80 288 80C290.122 80 292.157 80.8429 293.657 82.3431C295.157 83.8434 296 85.8783 296 88ZM360 88V104H344V88C344 85.8783 344.843 83.8434 346.343 82.3431C347.843 80.8429 349.878 80 352 80C354.122 80 356.157 80.8429 357.657 82.3431C359.157 83.8434 360 85.8783 360 88Z" fill="white"/>
<path opacity="0.5" d="M336 160H176C167.163 160 160 167.163 160 176V336C160 344.837 167.163 352 176 352H336C344.837 352 352 344.837 352 336V176C352 167.163 344.837 160 336 160Z" fill="white"/>
</svg>
