<svg width="512" height="512" viewBox="0 0 512 512" fill="none" xmlns="http://www.w3.org/2000/svg">
<path d="M497.719 418.437L308.859 40.7032C298.781 20.5626 278.531 8.04688 256 8.04688C233.476 8.04688 213.226 20.5626 203.148 40.7032L14.2811 418.437C5.05456 436.891 6.02336 458.375 16.867 475.922C27.7186 493.469 46.5077 503.953 67.1405 503.953H444.859C465.5 503.953 484.297 493.469 495.14 475.922C505.984 458.375 506.937 436.875 497.719 418.437ZM454.297 450.688C453.094 452.656 450.25 455.953 444.859 455.953H67.1405C61.7576 455.953 58.9139 452.656 57.703 450.688C56.4843 448.734 54.8125 444.719 57.2187 439.906L246.078 62.1718C248.844 56.6406 253.937 56.0469 256 56.0469C258.063 56.0469 263.156 56.6406 265.922 62.1718L454.781 439.906C457.187 444.719 455.516 448.734 454.297 450.688Z" fill="black"/>
<path d="M256 143.281C242.742 143.281 232 154.031 232 167.281V319.859C232 333.109 242.742 343.859 256 343.859C269.258 343.859 280 333.109 280 319.859V167.281C280 154.031 269.258 143.281 256 143.281ZM256 365.859C242.742 365.859 232 376.609 232 389.859V407.281C232 420.531 242.742 431.281 256 431.281C269.258 431.281 280 420.531 280 407.281V389.859C280 376.609 269.258 365.859 256 365.859Z" fill="black"/>
</svg>
