<svg width="427" height="342" viewBox="0 0 427 342" fill="none" xmlns="http://www.w3.org/2000/svg">
<path d="M425.034 162.133C381.941 62.08 300.874 0 213.408 0C125.941 0 44.8743 62.08 1.78101 162.133C0.606324 164.825 0 167.73 0 170.667C0 173.603 0.606324 176.508 1.78101 179.2C44.8743 279.253 125.941 341.333 213.408 341.333C300.874 341.333 381.941 279.253 425.034 179.2C426.209 176.508 426.815 173.603 426.815 170.667C426.815 167.73 426.209 164.825 425.034 162.133ZM213.408 298.667C145.781 298.667 81.781 249.813 44.8743 170.667C81.781 91.52 145.781 42.6667 213.408 42.6667C281.034 42.6667 345.034 91.52 381.941 170.667C345.034 249.813 281.034 298.667 213.408 298.667ZM213.408 85.3333C196.53 85.3333 180.032 90.3381 165.999 99.7146C151.966 109.091 141.029 122.418 134.57 138.011C128.111 153.604 126.421 170.761 129.714 187.314C133.007 203.867 141.134 219.072 153.068 231.006C165.002 242.941 180.207 251.068 196.76 254.36C213.313 257.653 230.471 255.963 246.063 249.504C261.656 243.046 274.983 232.108 284.36 218.075C293.736 204.042 298.741 187.544 298.741 170.667C298.741 148.035 289.751 126.33 273.747 110.327C257.744 94.3238 236.039 85.3333 213.408 85.3333ZM213.408 213.333C204.969 213.333 196.72 210.831 189.703 206.143C182.687 201.454 177.218 194.791 173.989 186.994C170.759 179.198 169.915 170.619 171.561 162.343C173.207 154.066 177.271 146.464 183.238 140.497C189.205 134.53 196.807 130.466 205.084 128.82C213.36 127.174 221.939 128.018 229.735 131.248C237.532 134.477 244.195 139.946 248.884 146.962C253.572 153.979 256.074 162.228 256.074 170.667C256.074 181.983 251.579 192.835 243.578 200.837C235.576 208.838 224.724 213.333 213.408 213.333Z" fill="#F4F4F4"/>
</svg>
