<svg width="512" height="512" viewBox="0 0 512 512" fill="none" xmlns="http://www.w3.org/2000/svg">
<g clip-path="url(#clip0_40_34)">
<mask id="mask0_40_34" style="mask-type:luminance" maskUnits="userSpaceOnUse" x="0" y="0" width="512" height="512">
<path d="M512 0H0V512H512V0Z" fill="white"/>
</mask>
<g mask="url(#mask0_40_34)">
<path d="M355.344 31.999C378.462 31.8902 401.115 38.4874 420.56 50.991C436.75 61.3808 450.419 75.2504 460.573 91.5898C470.726 107.929 477.109 126.327 479.254 145.444C481.4 164.562 479.256 183.917 472.978 202.101C466.698 220.283 456.443 236.838 442.96 250.558C425.411 268.277 403.021 280.416 378.597 285.453C354.174 290.491 328.808 288.205 305.68 278.878C282.512 302.158 253.264 331.502 248.544 336.222C245.413 339.477 241.122 341.358 236.608 341.454C235.453 341.458 234.302 341.312 233.184 341.022C230.435 340.314 227.606 339.958 224.768 339.966C217.894 339.822 211.187 342.086 205.808 346.366C203.115 348.61 200.946 351.414 199.454 354.586C197.962 357.755 197.181 361.214 197.168 364.718C197.197 367.365 196.702 369.99 195.714 372.445C194.726 374.901 193.262 377.136 191.408 379.022C189.456 381.011 187.088 382.541 184.472 383.504C181.858 384.467 179.062 384.838 176.288 384.59C175.072 384.59 173.776 384.59 172.368 384.462H171.984C168.155 385.102 164.557 386.722 161.541 389.163C158.523 391.606 156.19 394.787 154.768 398.398C152.46 405.115 152.292 412.382 154.288 419.198C155.023 421.75 155.086 424.448 154.469 427.03C153.852 429.613 152.577 431.992 150.768 433.934C138.592 445.774 119.392 465.134 119.392 465.134C113.635 470.864 106.601 475.144 98.8677 477.624C91.1342 480.104 82.9227 480.712 74.9083 479.4C66.8938 478.088 59.3051 474.893 52.7662 470.077C46.2275 465.259 40.9253 458.96 37.2958 451.694C32.5749 441.816 31.0851 430.702 33.0381 419.93C34.991 409.157 40.2875 399.272 48.1758 391.678L233.84 205.726C232.176 201.694 230.656 197.509 229.28 193.166C222.93 172.158 222.426 149.816 227.826 128.542C233.224 107.269 244.32 87.8694 259.92 72.431C272.389 59.7534 287.235 49.6573 303.608 42.7198C319.982 35.7822 337.562 32.1394 355.344 31.999ZM403.072 144.159C406.942 144.159 410.774 143.389 414.346 141.895C417.917 140.4 421.154 138.212 423.872 135.455C429.387 129.811 432.474 122.234 432.474 114.343C432.474 106.452 429.387 98.8749 423.872 93.231C421.134 90.4731 417.877 88.2843 414.29 86.7906C410.702 85.297 406.854 84.5278 402.968 84.5278C399.082 84.5278 395.234 85.297 391.646 86.7906C388.059 88.2843 384.802 90.4731 382.064 93.231C376.541 98.8709 373.448 106.45 373.448 114.343C373.448 122.236 376.541 129.815 382.064 135.455C384.813 138.213 388.08 140.402 391.677 141.896C395.274 143.389 399.13 144.159 403.024 144.159H403.072ZM355.344 -0.000892385C310.891 0.30971 268.381 18.2664 237.168 49.919C218.115 68.771 204.382 92.3219 197.358 118.188C190.334 144.053 190.269 171.315 197.168 197.214L25.4718 368.974C12.841 381.398 4.43422 397.478 1.43965 414.941C-1.55493 432.403 1.01417 450.365 8.78382 466.286C14.7239 478.027 23.3595 488.194 33.9842 495.955C44.6086 503.715 56.92 508.851 69.9104 510.939C82.9008 513.027 96.2013 512.01 108.723 507.97C121.244 503.93 132.632 496.982 141.952 487.694C142.096 487.55 161.024 468.494 173.024 456.782C178.285 451.466 182.221 444.982 184.51 437.861C186.802 430.739 187.382 423.179 186.208 415.79C196.901 414.061 206.76 408.954 214.342 401.219C221.926 393.483 226.835 383.525 228.352 372.798C231.054 373.293 233.797 373.539 236.544 373.534C249.534 373.402 261.949 368.16 271.104 358.942L314.48 315.422C327.088 318.597 340.038 320.208 353.04 320.222C374.002 320.267 394.758 316.115 414.091 308.013C433.422 299.909 450.936 288.018 465.6 273.038C482.451 255.939 495.275 235.294 503.136 212.61C510.997 189.925 513.696 165.773 511.038 141.912C508.381 118.051 500.43 95.0846 487.771 74.6861C475.11 54.2875 458.058 36.971 437.856 23.999C413.235 8.22341 384.584 -0.110153 355.344 -0.000892385Z" fill="white"/>
</g>
</g>
<defs>
<clipPath id="clip0_40_34">
<rect width="512" height="512" fill="white"/>
</clipPath>
</defs>
</svg>
