<svg width="512" height="512" viewBox="0 0 512 512" fill="none" xmlns="http://www.w3.org/2000/svg">
<path d="M392 464H384.672V410.937C384.703 386.303 379.302 361.966 368.853 339.658C358.404 317.35 343.164 297.62 324.219 281.875L315.297 274.437C312.593 272.186 310.417 269.367 308.924 266.181C307.43 262.995 306.656 259.519 306.656 256C306.656 252.481 307.43 249.005 308.924 245.819C310.417 242.633 312.593 239.814 315.297 237.562L324.219 230.125C327.145 227.688 329.787 225.003 332.521 222.397L333.219 221.93C333.713 221.457 334.137 220.919 334.625 220.439C337.202 217.895 339.646 215.262 342.04 212.575C343.499 210.937 344.936 209.293 346.328 207.6C348.663 204.764 350.896 201.863 353.025 198.897C354.116 197.372 355.164 195.829 356.204 194.269C358.427 190.946 360.558 187.582 362.533 184.117C363.216 182.916 363.838 181.688 364.49 180.471C366.565 176.611 368.553 172.721 370.317 168.712C370.669 167.916 370.955 167.092 371.295 166.29C373.154 161.877 374.919 157.432 376.397 152.868L376.448 152.686C379.17 144.128 381.198 135.365 382.515 126.482C382.826 124.475 383.276 122.496 383.514 120.475C383.762 118.326 383.797 116.139 383.963 113.972C384.22 110.701 384.579 107.441 384.641 104.148C384.644 103.947 384.546 103.766 384.534 103.567C384.547 102.726 384.672 101.904 384.672 101.062V48H392C398.365 48 404.47 45.4714 408.971 40.9706C413.471 36.4697 416 30.3652 416 24C416 17.6348 413.471 11.5303 408.971 7.02944C404.47 2.52856 398.365 0 392 0L120 0C113.635 0 107.53 2.52856 103.029 7.02944C98.5286 11.5303 96 17.6348 96 24C96 30.3652 98.5286 36.4697 103.029 40.9706C107.53 45.4714 113.635 48 120 48H127.328V101.063C127.328 101.904 127.453 102.727 127.466 103.568C127.454 103.767 127.356 103.947 127.359 104.149C127.42 107.414 127.779 110.649 128.033 113.896C128.201 116.094 128.237 118.312 128.489 120.493C128.671 122.03 129.024 123.536 129.25 125.068C134.58 162.238 152.278 196.528 179.488 222.406L179.875 222.812L180.053 222.932C182.61 225.348 185.057 227.856 187.781 230.125L196.703 237.562C199.408 239.814 201.583 242.633 203.077 245.819C204.57 249.005 205.344 252.481 205.344 256C205.344 259.519 204.57 262.995 203.077 266.181C201.583 269.367 199.408 272.186 196.703 274.437L187.781 281.875C168.836 297.62 153.596 317.35 143.147 339.658C132.698 361.966 127.297 386.303 127.328 410.937V464H120C113.635 464 107.53 466.529 103.029 471.029C98.5286 475.53 96 481.635 96 488C96 494.365 98.5286 500.47 103.029 504.971C107.53 509.471 113.635 512 120 512H392C398.365 512 404.47 509.471 408.971 504.971C413.471 500.47 416 494.365 416 488C416 481.635 413.471 475.53 408.971 471.029C404.47 466.529 398.365 464 392 464ZM120 32C117.878 32 115.843 31.1571 114.343 29.6569C112.843 28.1566 112 26.1217 112 24C112 21.8783 112.843 19.8434 114.343 18.3431C115.843 16.8429 117.878 16 120 16H392C394.122 16 396.157 16.8429 397.657 18.3431C399.157 19.8434 400 21.8783 400 24C400 26.1217 399.157 28.1566 397.657 29.6569C396.157 31.1571 394.122 32 392 32H120ZM143.328 48H368.672V96H143.328V48ZM190.5 210.819C189.818 210.169 189.097 209.554 188.43 208.893C186.392 206.884 184.444 204.795 182.531 202.676C181.03 201.013 179.571 199.32 178.152 197.597C176.296 195.345 174.468 193.07 172.749 190.716C171.659 189.228 170.656 187.69 169.623 186.166C167.772 183.426 165.906 180.691 164.237 177.836C164.086 177.578 163.963 177.305 163.813 177.046C159.324 169.28 155.525 161.136 152.459 152.706L152.45 152.685C151.291 149.487 150.356 146.21 149.411 142.939C148.926 141.241 148.403 139.557 147.976 137.841C147.282 135.082 146.723 132.289 146.184 129.492C145.713 127.007 145.286 124.513 144.937 121.998C144.609 119.668 144.313 117.334 144.094 114.988C144.004 113.998 144.001 112.992 143.93 112H368.07C367.999 112.999 367.997 114.01 367.905 115.005C367.688 117.318 367.398 119.618 367.076 121.914C366.716 124.528 366.274 127.122 365.781 129.703C365.275 132.325 364.751 134.941 364.111 137.527C363.568 139.73 362.911 141.894 362.271 144.066C361.481 146.746 360.73 149.44 359.8 152.066C358.679 155.218 357.376 158.293 356.05 161.358C355.087 163.602 354.1 165.826 353.034 168.016C351.156 171.84 349.185 175.622 346.988 179.279C346.484 180.126 345.921 180.93 345.401 181.766C343.005 185.583 340.475 189.321 337.735 192.924C337.315 193.479 336.884 194.022 336.455 194.572C333.573 198.255 330.511 201.809 327.267 205.232C326.704 205.823 326.161 206.435 325.589 207.015C324.477 208.155 323.225 209.177 322.074 210.286L256 254.383L190.5 210.819ZM143.328 410.937C143.3 388.65 148.188 366.63 157.644 346.447C167.099 326.265 180.889 308.416 198.032 294.172L206.954 286.734C212.391 282.471 216.549 276.792 218.972 270.322C221.395 263.851 221.989 256.838 220.69 250.052L248 268.278V296C248 298.122 248.843 300.157 250.343 301.657C251.843 303.157 253.878 304 256 304C258.122 304 260.157 303.157 261.657 301.657C263.157 300.157 264 298.122 264 296V268.272L291.318 249.982C290.011 256.778 290.601 263.803 293.023 270.286C295.444 276.769 299.604 282.46 305.046 286.735L313.968 294.172C331.111 308.416 344.901 326.265 354.356 346.448C363.812 366.63 368.7 388.65 368.672 410.937V464H366.99L284.156 405.609C275.91 399.817 266.078 396.709 256 396.709C245.923 396.709 236.09 399.817 227.844 405.609L145.01 464H143.328V410.937ZM339.219 464H172.781L237.063 418.688C242.609 414.791 249.222 412.7 256 412.7C262.778 412.7 269.392 414.791 274.938 418.688L339.219 464ZM392 496H120C117.878 496 115.843 495.157 114.343 493.657C112.843 492.157 112 490.122 112 488C112 485.878 112.843 483.843 114.343 482.343C115.843 480.843 117.878 480 120 480H392C394.122 480 396.157 480.843 397.657 482.343C399.157 483.843 400 485.878 400 488C400 490.122 399.157 492.157 397.657 493.657C396.157 495.157 394.122 496 392 496ZM264 352C265.582 352 267.129 351.531 268.445 350.652C269.76 349.773 270.786 348.523 271.391 347.061C271.997 345.6 272.155 343.991 271.846 342.439C271.538 340.887 270.776 339.462 269.657 338.343C268.538 337.224 267.113 336.462 265.561 336.154C264.009 335.845 262.4 336.003 260.939 336.609C259.477 337.214 258.227 338.24 257.348 339.555C256.469 340.871 256 342.418 256 344C256 346.122 256.843 348.157 258.343 349.657C259.843 351.157 261.878 352 264 352ZM248 384C249.582 384 251.129 383.531 252.445 382.652C253.76 381.773 254.786 380.523 255.391 379.061C255.997 377.6 256.155 375.991 255.846 374.439C255.538 372.887 254.776 371.462 253.657 370.343C252.538 369.224 251.113 368.462 249.561 368.154C248.009 367.845 246.4 368.003 244.939 368.609C243.477 369.214 242.227 370.24 241.348 371.555C240.469 372.871 240 374.418 240 376C240 378.122 240.843 380.157 242.343 381.657C243.843 383.157 245.878 384 248 384Z" fill="black"/>
</svg>
