<svg width="470" height="384" viewBox="0 0 470 384" fill="none" xmlns="http://www.w3.org/2000/svg">
<path d="M405.333 0H64C28.656 0 0 28.656 0 64V320C0 355.344 28.656 384 64 384H405.333C440.677 384 469.333 355.344 469.333 320V64C469.333 28.656 440.677 0 405.333 0ZM405.333 42.6667C407.797 42.6667 410.165 43.0827 412.363 43.856L234.667 186.016L56.9707 43.856C59.2296 43.0645 61.6065 42.6623 64 42.6667H405.333ZM405.333 341.333H64C58.342 341.333 52.9158 339.086 48.9151 335.085C44.9143 331.084 42.6667 325.658 42.6667 320V87.0507L221.339 229.989C225.232 233.109 229.947 234.667 234.667 234.667C239.387 234.667 244.101 233.109 247.995 229.989L426.667 87.0507V320C426.667 325.658 424.419 331.084 420.418 335.085C416.418 339.086 410.991 341.333 405.333 341.333Z" fill="#999393"/>
</svg>
