<svg width="342" height="342" viewBox="0 0 342 342" fill="none" xmlns="http://www.w3.org/2000/svg">
<path d="M170.667 40.5333C195.413 40.5333 215.467 60.5867 215.467 85.3333C215.467 110.08 195.413 130.133 170.667 130.133C145.92 130.133 125.867 110.08 125.867 85.3333C125.867 60.5867 145.92 40.5333 170.667 40.5333ZM170.667 232.533C234.027 232.533 300.8 263.68 300.8 277.333V300.8H40.5333V277.333C40.5333 263.68 107.307 232.533 170.667 232.533ZM170.667 0C123.52 0 85.3333 38.1867 85.3333 85.3333C85.3333 132.48 123.52 170.667 170.667 170.667C217.813 170.667 256 132.48 256 85.3333C256 38.1867 217.813 0 170.667 0ZM170.667 192C113.707 192 0 220.587 0 277.333V320C0 331.733 9.6 341.333 21.3333 341.333H320C331.733 341.333 341.333 331.733 341.333 320V277.333C341.333 220.587 227.627 192 170.667 192Z" fill="#999393"/>
</svg>
