<svg width="512" height="512" viewBox="0 0 512 512" fill="none" xmlns="http://www.w3.org/2000/svg">
<path d="M497.913 497.913C479.131 516.695 448.688 516.695 429.905 497.913L345.043 413.05C310.154 435.432 268.913 448.767 224.384 448.767C100.469 448.767 0 348.312 0 224.383C0 100.454 100.469 0 224.384 0C348.315 0 448.768 100.452 448.768 224.383C448.768 268.897 435.416 310.154 413.05 345.059L497.913 429.922C516.695 448.704 516.695 479.131 497.913 497.913ZM224.384 64.109C135.873 64.109 64.11 135.856 64.11 224.382C64.11 312.908 135.874 384.656 224.384 384.656C312.909 384.656 384.657 312.908 384.657 224.382C384.657 135.856 312.909 64.109 224.384 64.109Z" fill="white"/>
</svg>
