<svg width="32" height="22" viewBox="0 0 32 22" fill="none" xmlns="http://www.w3.org/2000/svg">
<path d="M30 0H2C1.46957 0 0.960859 0.210714 0.585786 0.585786C0.210714 0.960859 0 1.46957 0 2L0 20C0 20.5304 0.210714 21.0391 0.585786 21.4142C0.960859 21.7893 1.46957 22 2 22H30C30.5304 22 31.0391 21.7893 31.4142 21.4142C31.7893 21.0391 32 20.5304 32 20V2C32 1.46957 31.7893 0.960859 31.4142 0.585786C31.0391 0.210714 30.5304 0 30 0ZM2 2H30V20H2V2ZM27.166 10H15C14.7348 10 14.4804 10.1054 14.2929 10.2929C14.1054 10.4804 14 10.7348 14 11C14 11.2652 14.1054 11.5196 14.2929 11.7071C14.4804 11.8946 14.7348 12 15 12H27.166C27.4312 12 27.6856 11.8946 27.8731 11.7071C28.0606 11.5196 28.166 11.2652 28.166 11C28.166 10.7348 28.0606 10.4804 27.8731 10.2929C27.6856 10.1054 27.4312 10 27.166 10ZM27.166 14H15C14.7348 14 14.4804 14.1054 14.2929 14.2929C14.1054 14.4804 14 14.7348 14 15C14 15.2652 14.1054 15.5196 14.2929 15.7071C14.4804 15.8946 14.7348 16 15 16H27.166C27.4312 16 27.6856 15.8946 27.8731 15.7071C28.0606 15.5196 28.166 15.2652 28.166 15C28.166 14.7348 28.0606 14.4804 27.8731 14.2929C27.6856 14.1054 27.4312 14 27.166 14ZM27.166 6H15C14.7348 6 14.4804 6.10536 14.2929 6.29289C14.1054 6.48043 14 6.73478 14 7C14 7.26522 14.1054 7.51957 14.2929 7.70711C14.4804 7.89464 14.7348 8 15 8H27.166C27.4312 8 27.6856 7.89464 27.8731 7.70711C28.0606 7.51957 28.166 7.26522 28.166 7C28.166 6.73478 28.0606 6.48043 27.8731 6.29289C27.6856 6.10536 27.4312 6 27.166 6ZM5.58 6.416C5.58 7.05676 5.83454 7.67128 6.28763 8.12437C6.74072 8.57746 7.35524 8.832 7.996 8.832C8.63676 8.832 9.25128 8.57746 9.70437 8.12437C10.1575 7.67128 10.412 7.05676 10.412 6.416C10.412 5.77524 10.1575 5.16072 9.70437 4.70763C9.25128 4.25454 8.63676 4 7.996 4C7.35524 4 6.74072 4.25454 6.28763 4.70763C5.83454 5.16072 5.58 5.77524 5.58 6.416ZM8.048 9.798C5.864 9.798 4.096 12.17 4.096 15.098C4.096 18.026 12 18.024 12 15.098C12 12.172 10.23 9.798 8.048 9.798Z" fill="#999393"/>
</svg>
