<svg width="427" height="427" viewBox="0 0 427 427" fill="none" xmlns="http://www.w3.org/2000/svg">
<path fill-rule="evenodd" clip-rule="evenodd" d="M141.654 40.2988C114.923 33.5362 84.203 40.7677 62.4857 62.485C40.7683 84.2024 33.5355 114.922 40.2982 141.674C16.6182 155.776 0 182.635 0 213.333C0 244.032 16.6182 270.89 40.2982 285.013C33.5355 311.744 40.7683 342.464 62.4857 364.182C84.203 385.899 114.922 393.13 141.674 386.368C155.776 410.048 182.635 426.667 213.333 426.667C244.032 426.667 270.89 410.048 285.013 386.368C311.744 393.13 342.464 385.899 364.181 364.182C385.898 342.464 393.131 311.744 386.368 284.992C410.048 270.891 426.667 244.032 426.667 213.333C426.667 182.635 410.048 155.776 386.368 141.654C393.131 114.923 385.898 84.2024 364.181 62.485C342.464 40.7677 311.744 33.5362 284.992 40.2988C270.891 16.6188 244.032 0 213.333 0C182.635 0 155.776 16.6188 141.654 40.2988ZM141.376 86.1654C147.307 90.176 154.88 90.9442 161.514 88.2135C168.128 85.4615 172.928 79.5732 174.293 72.5332C177.557 55.5305 194.155 42.6667 213.333 42.6667C232.512 42.6667 249.11 55.5305 252.374 72.5332C253.739 79.5732 258.539 85.4615 265.152 88.2135C271.787 90.9442 279.36 90.176 285.29 86.1654C299.605 76.4587 320.448 79.1037 334.016 92.6504C347.562 106.218 350.208 127.062 340.501 141.376C336.491 147.307 335.722 154.88 338.453 161.515C341.205 168.128 347.093 172.928 354.133 174.294C371.135 177.558 384 194.155 384 213.333C384 232.512 371.135 249.109 354.133 252.373C347.093 253.738 341.205 258.538 338.453 265.152C335.722 271.786 336.491 279.36 340.501 285.29C350.208 299.605 347.562 320.448 334.016 334.016C320.448 347.563 299.605 350.208 285.29 340.501C279.36 336.491 271.787 335.722 265.152 338.453C258.539 341.205 253.739 347.093 252.374 354.133C249.11 371.136 232.512 384 213.333 384C194.155 384 177.557 371.136 174.293 354.133C172.928 347.093 168.128 341.205 161.514 338.453C154.88 335.722 147.307 336.491 141.376 340.501C127.062 350.208 106.219 347.563 92.651 334.016C79.1044 320.448 76.4587 299.605 86.1654 285.29C90.176 279.36 90.9442 271.786 88.2135 265.152C85.4615 258.538 79.5738 253.738 72.5338 252.373C55.5312 249.109 42.6667 232.512 42.6667 213.333C42.6667 194.155 55.5312 177.558 72.5338 174.294C79.5738 172.928 85.4615 168.128 88.2135 161.515C90.9442 154.88 90.176 147.307 86.1654 141.376C76.4587 127.062 79.1044 106.218 92.651 92.6504C106.219 79.1037 127.062 76.4587 141.376 86.1654ZM134.251 228.373L177.387 271.509C185.707 279.829 199.211 279.829 207.552 271.509L292.415 186.645C300.735 178.304 300.735 164.8 292.415 156.459C284.095 148.139 270.571 148.139 262.251 156.459L192.469 226.261L164.415 198.208C156.095 189.888 142.571 189.888 134.251 198.208C125.931 206.528 125.931 220.053 134.251 228.373Z" fill="#999393"/>
</svg>
